<svg xmlns="http://www.w3.org/2000/svg" width="53.38" height="24.27" viewBox="0 0 53.38 24.27">
  <g id="_104logo_branding" data-name="104logo_branding" transform="translate(0 -0.987)">
    <g id="组_926" data-name="组 926" transform="translate(0 0.22)">
      <path id="路径_3829" data-name="路径 3829" d="M27.627,12.9v0h4.419v0A12.333,12.333,0,0,0,19.518.767a12.6,12.6,0,0,0-10.674,5.8V.767H4.42L0,5.05H4.42V25.034H8.844v-5.8A11.787,11.787,0,0,1,6.987,12.9,9.769,9.769,0,0,1,9.554,6.319l.12-.128c.222-.238.455-.462.7-.679l.15-.131a10.4,10.4,0,0,1,.84-.642.648.648,0,0,0,.067-.05,10.51,10.51,0,0,1,1.022-.6l.041-.02a10.416,10.416,0,0,1,.983-.437c.1-.04.2-.073.306-.109.258-.092.518-.173.787-.243.124-.033.248-.066.374-.094.27-.06.54-.109.813-.148.119-.018.235-.038.355-.053a10.888,10.888,0,0,1,1.193-.071,10.612,10.612,0,0,1,1.758.152c.073.013.15.017.223.032.1.019.195.047.29.068A10.44,10.44,0,0,1,22.006,4l.01.006q.418.206.814.45l.066.048c.24.15.478.308.7.48.022.015.04.031.058.045.227.173.45.353.662.544.017.014.033.036.051.05.21.192.416.39.608.6.02.025.04.051.062.074.187.2.366.413.534.634.072.091.134.193.2.29.108.154.222.3.326.464s.192.34.288.51c.053.1.116.193.167.3.1.19.18.387.263.586.04.087.082.17.12.26.108.28.206.567.289.857a.132.132,0,0,1,.008.03,9.712,9.712,0,0,1,.344,1.872,7.573,7.573,0,0,1,.041.8" fill="#686868" fill-rule="evenodd"/>
    </g>
    <path id="路径_3830" data-name="路径 3830" d="M43.8,16.688H36.428L43.8,9.557Zm4.417,0V.988h-.737l-19.9,19.27H43.8v5h4.417v-5H53.38v-3.57H48.22Z" fill="#686868" fill-rule="evenodd"/>
    <path id="路径_3831" data-name="路径 3831" d="M27.582,20.256l3.989-3.863a11.732,11.732,0,0,0,.473-3.272H27.627a7.983,7.983,0,0,1-8.109,7.85,7.98,7.98,0,0,1-8.107-7.85,7.979,7.979,0,0,1,8.107-7.852,8.02,8.02,0,0,1,8.067,7.043A10.186,10.186,0,0,0,17.305,3.13,10.155,10.155,0,0,0,6.987,13.12,12.338,12.338,0,0,0,19.518,25.255a12.622,12.622,0,0,0,10.117-5H27.582Z" fill="#ff7800" fill-rule="evenodd"/>
  </g>
</svg>
