<svg xmlns="http://www.w3.org/2000/svg" width="51" height="51" viewBox="0 0 51 51">
  <g id="组_923" data-name="组 923" transform="translate(0.5 0.5)">
    <g id="Layer_2_1_" transform="translate(0 0)">
      <g id="Surfaces">
        <g id="Drawing_Surface">
          <g id="Outline_no_shadow">
            <path id="路径_47" data-name="路径 47" d="M8.854,0H41.146A8.962,8.962,0,0,1,50,9.081V40.919A8.962,8.962,0,0,1,41.146,50H8.854A8.962,8.962,0,0,1,0,40.919V9.081A8.962,8.962,0,0,1,8.854,0Z" fill="none" stroke="#010201" stroke-width="1"/>
          </g>
        </g>
      </g>
      <g id="Outlined_Mnemonics_Logos" transform="translate(9.699 10.848)">
        <g id="Ai">
          <path id="路径_48" data-name="路径 48" d="M64.175,77.5H56.042L54.38,82.637a.383.383,0,0,1-.415.306h-4.11c-.24,0-.306-.131-.24-.394l7.04-20.266c.066-.219.131-.459.219-.721A7.636,7.636,0,0,0,57,60.14a.217.217,0,0,1,.175-.24h5.662c.175,0,.262.066.284.175l7.98,22.518c.066.24,0,.35-.219.35H66.317a.33.33,0,0,1-.35-.24ZM57.31,73.061h5.553c-.131-.459-.306-1.006-.5-1.574-.2-.59-.394-1.224-.59-1.88-.219-.678-.415-1.334-.634-2.011s-.415-1.312-.59-1.946c-.175-.612-.328-1.181-.481-1.705h-.044a26.844,26.844,0,0,1-.743,2.82c-.328,1.049-.656,2.143-1.006,3.236-.306,1.115-.634,2.143-.962,3.061Z" transform="translate(-49.59 -58.151)" fill="#010201"/>
          <path id="路径_49" data-name="路径 49" d="M160.185,57.387a2.706,2.706,0,0,1-1.946-.765,2.84,2.84,0,0,1-.743-2.011,2.572,2.572,0,0,1,.787-1.946,2.8,2.8,0,0,1,1.946-.765,2.618,2.618,0,0,1,1.989.765,3.006,3.006,0,0,1-.044,3.957A2.571,2.571,0,0,1,160.185,57.387Zm-2.449,18.977V59.53c0-.219.087-.306.284-.306h4.329c.2,0,.284.109.284.306V76.364c0,.24-.087.35-.284.35h-4.285A.306.306,0,0,1,157.736,76.364Z" transform="translate(-133.904 -51.9)" fill="#010201"/>
        </g>
      </g>
    </g>
  </g>
</svg>
