<svg xmlns="http://www.w3.org/2000/svg" width="51" height="51" viewBox="0 0 51 51">
  <g id="vlpa" transform="translate(0.5 0.5)">
    <g id="vlpb">
      <g id="vlpc">
        <g id="vlpd">
          <path id="路径_3820" data-name="路径 3820" d="M8.854,0H41.146A8.962,8.962,0,0,1,50,9.081V40.919A8.962,8.962,0,0,1,41.146,50H8.854A8.962,8.962,0,0,1,0,40.919V9.081A8.962,8.962,0,0,1,8.854,0Z" fill="none" stroke="#010201" stroke-width="1"/>
        </g>
      </g>
    </g>
    <g id="vlpe" transform="translate(5.274 11.976)">
      <g id="vlpf">
        <path id="路径_3821" data-name="路径 3821" d="M22.79,84.224V60.617a.279.279,0,0,1,.231-.3h.023c.347-.023.879-.046,1.551-.046.694-.023,1.481-.023,2.407-.046s1.9-.023,2.939-.023a14.526,14.526,0,0,1,7.036,1.528,10.15,10.15,0,0,1,4.189,4.189,13.091,13.091,0,0,1,1.389,6.133,14.31,14.31,0,0,1-.717,4.745,11.275,11.275,0,0,1-1.99,3.564A12.116,12.116,0,0,1,37,82.835a12.7,12.7,0,0,1-3.4,1.458,14.206,14.206,0,0,1-3.564.463H27.419c-.926,0-1.805,0-2.592-.023-.81-.023-1.412-.023-1.805-.046-.162,0-.231-.139-.231-.37ZM27.674,64.69V80.127c.255,0,.486,0,.717.023.208.023.44.023.648.046.231.023.486.023.764.023a8.66,8.66,0,0,0,3.148-.532,6.212,6.212,0,0,0,2.43-1.574,7.148,7.148,0,0,0,1.551-2.569,11.011,11.011,0,0,0,.555-3.472,9.2,9.2,0,0,0-.532-3.263A6.035,6.035,0,0,0,33,65.06a9.764,9.764,0,0,0-3.055-.44c-.463,0-.856,0-1.18.023-.324,0-.694.023-1.088.046Z" transform="translate(-22.787 -60.2)" fill="#010201"/>
        <path id="路径_3822" data-name="路径 3822" d="M125.952,98.657h-3.231a.237.237,0,0,1-.207-.069.584.584,0,0,1-.1-.207c-.328-1.382-.6-2.626-.829-3.68-.225-1.071-.415-1.97-.553-2.713s-.259-1.365-.363-1.883c-.086-.518-.173-.95-.225-1.313h-.017c-.173.76-.328,1.5-.484,2.212-.138.708-.311,1.434-.484,2.16s-.363,1.52-.587,2.384c-.207.864-.449,1.814-.708,2.834-.035.19-.121.276-.276.276h-3.231a.386.386,0,0,1-.242-.052.713.713,0,0,1-.121-.19L110.92,85.059c-.052-.156.017-.225.207-.225h3.266c.156,0,.242.052.259.173.346,1.521.639,2.834.864,3.939s.415,2.039.536,2.816.242,1.417.328,1.9.156.9.207,1.209h.052c.035-.276.069-.536.121-.812q.1-.492.259-1.3c.1-.536.225-1.158.38-1.883s.328-1.555.536-2.523c.19-.95.467-2.039.795-3.266a.563.563,0,0,1,.069-.225c.017-.035.086-.052.19-.052h3.387c.1,0,.156.069.173.19.294,1.261.536,2.367.743,3.317q.285,1.425.518,2.54c.138.726.259,1.365.328,1.883.069.536.155.968.225,1.33a7.705,7.705,0,0,1,.121.881h.052c.086-.346.156-.76.225-1.227s.156-.985.276-1.572c.1-.587.225-1.227.363-1.935.121-.708.294-1.486.484-2.367.19-.864.4-1.814.639-2.834.035-.155.1-.225.225-.225h3.024c.156,0,.207.086.173.242l-3.732,13.322a.412.412,0,0,1-.1.19C126.108,98.64,126.039,98.674,125.952,98.657Z" transform="translate(-89.589 -74.4)" fill="#010201"/>
      </g>
    </g>
  </g>
</svg>
