<svg xmlns="http://www.w3.org/2000/svg" width="51" height="51" viewBox="0 0 51 51">
  <g id="组_921" data-name="组 921" transform="translate(0.5 0.5)">
    <g id="indesign" transform="translate(0 0)">
      <g id="Surfaces" transform="translate(0)">
        <g id="Publishing_Surface">
          <g id="Outline_no_shadow">
            <path id="路径_50" data-name="路径 50" d="M16.854,4H49.146A8.962,8.962,0,0,1,58,13.081V44.919A8.962,8.962,0,0,1,49.146,54H16.854A8.962,8.962,0,0,1,8,44.919V13.081A8.962,8.962,0,0,1,16.854,4Z" transform="translate(-8 -4)" fill="none" stroke="#010201" stroke-width="1"/>
          </g>
        </g>
      </g>
      <g id="Outlined_Mnemonics_Logos" transform="translate(12.931 10.71)">
        <g id="Id">
          <path id="路径_51" data-name="路径 51" d="M77.775,64.172V86.6c0,.24-.109.35-.306.35H73.184c-.2,0-.284-.109-.284-.35V64.172c0-.2.109-.284.306-.284h4.263a.247.247,0,0,1,.284.219A.08.08,0,0,1,77.775,64.172Z" transform="translate(-72.9 -62.005)" fill="#010201"/>
          <path id="路径_52" data-name="路径 52" d="M119.9,80.583a10.869,10.869,0,0,1-4.7-.984,7.622,7.622,0,0,1-3.3-2.973,9.46,9.46,0,0,1-1.2-4.985,8.979,8.979,0,0,1,1.2-4.613,9.079,9.079,0,0,1,3.476-3.389,11.183,11.183,0,0,1,5.531-1.268,3.9,3.9,0,0,1,.459.022c.2.022.415.022.678.044V55.528c0-.153.066-.24.219-.24H126.7a.2.2,0,0,1,.219.153V76.3c0,.394.022.831.044,1.312.044.459.066.9.087,1.268a.355.355,0,0,1-.219.35,16.7,16.7,0,0,1-3.564,1.049A19.094,19.094,0,0,1,119.9,80.583Zm2.143-4.372V66.591a5.591,5.591,0,0,0-.59-.109c-.24-.022-.481-.044-.721-.044a5.389,5.389,0,0,0-2.47.568,4.9,4.9,0,0,0-1.858,1.618,4.846,4.846,0,0,0-.721,2.777,6.092,6.092,0,0,0,.372,2.252,4.273,4.273,0,0,0,.984,1.552,3.777,3.777,0,0,0,1.487.874,5.723,5.723,0,0,0,1.815.284c.328,0,.634-.022.918-.044A1.862,1.862,0,0,0,122.044,76.21Z" transform="translate(-102.433 -55.284)" fill="#010201"/>
        </g>
      </g>
    </g>
  </g>
</svg>
