<svg xmlns="http://www.w3.org/2000/svg" width="51" height="51" viewBox="0 0 51 51">
  <g id="组_920" data-name="组 920" transform="translate(0.5 0.5)">
    <g id="Layer_2_1_" transform="translate(0)">
      <g id="Surfaces">
        <g id="Video_Audio_Surface">
          <g id="Outline_no_shadow">
            <path id="路径_56" data-name="路径 56" d="M8.854,0H41.146A8.962,8.962,0,0,1,50,9.081V40.919A8.962,8.962,0,0,1,41.146,50H8.854A8.962,8.962,0,0,1,0,40.919V9.081A8.962,8.962,0,0,1,8.854,0Z" fill="none" stroke="#010201" stroke-width="1"/>
          </g>
        </g>
      </g>
      <g id="Outlined_Mnemonics_Logos" transform="translate(11.084 12.47)">
        <g id="Pr">
          <path id="路径_57" data-name="路径 57" d="M57,82.368v-22.5c0-.153.066-.24.219-.24.372,0,.721,0,1.224-.022.525-.022,1.071-.022,1.662-.044s1.224-.022,1.9-.044S63.34,59.5,64,59.5a12.855,12.855,0,0,1,4.5.678,7.807,7.807,0,0,1,2.93,1.793,6.961,6.961,0,0,1,1.6,2.492,8.368,8.368,0,0,1,.5,2.842,7.816,7.816,0,0,1-1.312,4.657,7.49,7.49,0,0,1-3.52,2.667,14.169,14.169,0,0,1-4.919.743c-.525,0-.874,0-1.093-.022s-.525-.022-.94-.022v7.018a.272.272,0,0,1-.24.306H57.262C57.087,82.652,57,82.565,57,82.368Zm4.766-18.517V71.2c.306.022.59.044.853.044h1.159a8.166,8.166,0,0,0,2.514-.394,3.76,3.76,0,0,0,1.793-1.159,3.378,3.378,0,0,0,.678-2.252,3.6,3.6,0,0,0-.5-1.946,3.17,3.17,0,0,0-1.53-1.246,6.415,6.415,0,0,0-2.58-.437c-.568,0-1.071,0-1.487.022a5.006,5.006,0,0,0-.9.022Z" transform="translate(-57 -59.5)" fill="#010201"/>
          <path id="路径_58" data-name="路径 58" d="M145.8,83.862h3.826a.492.492,0,0,1,.459.35,2.22,2.22,0,0,1,.131.547c.044.219.087.459.109.678.022.24.044.5.044.787a8.137,8.137,0,0,1,2.339-1.88,6.776,6.776,0,0,1,3.323-.853.272.272,0,0,1,.306.24v4.351c0,.175-.109.24-.35.24a9.506,9.506,0,0,0-2.361.219,9,9,0,0,0-1.836.59,3.4,3.4,0,0,0-1.115.809v11.15c0,.219-.087.306-.284.306h-4.307a.3.3,0,0,1-.35-.262v-12.2c0-.525,0-1.071-.022-1.64s-.022-1.137-.044-1.705c0-.5-.044-.984-.087-1.487a.2.2,0,0,1,.153-.24c0-.022.044-.022.066,0Z" transform="translate(-126.215 -78.243)" fill="#010201"/>
        </g>
      </g>
    </g>
  </g>
</svg>
