<svg xmlns="http://www.w3.org/2000/svg" width="51" height="51" viewBox="0 0 51 51">
  <g id="组_922" data-name="组 922" transform="translate(0.5 0.5)">
    <g id="Layer_2_1_">
      <g id="Surfaces">
        <g id="Photo_Surface">
          <g id="Outline_no_shadow">
            <path id="路径_53" data-name="路径 53" d="M8.854,0H41.146A8.962,8.962,0,0,1,50,9.081V40.919A8.962,8.962,0,0,1,41.146,50H8.854A8.962,8.962,0,0,1,0,40.919V9.081A8.962,8.962,0,0,1,8.854,0Z" fill="none" stroke="#010201" stroke-width="1"/>
          </g>
        </g>
      </g>
      <g id="Outlined_Mnemonics_Logos" transform="translate(10.411 12.461)">
        <g id="Ps">
          <path id="路径_54" data-name="路径 54" d="M54,82.368v-22.5c0-.153.066-.24.219-.24.372,0,.721,0,1.224-.022.525-.022,1.071-.022,1.662-.044s1.224-.022,1.9-.044S60.34,59.5,61,59.5a12.855,12.855,0,0,1,4.5.678,7.807,7.807,0,0,1,2.93,1.793,6.961,6.961,0,0,1,1.6,2.492,8.368,8.368,0,0,1,.5,2.842,7.816,7.816,0,0,1-1.312,4.657,7.49,7.49,0,0,1-3.52,2.667,14.169,14.169,0,0,1-4.919.743c-.525,0-.874,0-1.093-.022s-.525-.022-.94-.022v7.018a.272.272,0,0,1-.24.306H54.262C54.087,82.652,54,82.565,54,82.368Zm4.766-18.517V71.2c.306.022.59.044.853.044h1.159a8.166,8.166,0,0,0,2.514-.394,3.76,3.76,0,0,0,1.793-1.159,3.378,3.378,0,0,0,.678-2.252,3.6,3.6,0,0,0-.5-1.946,3.17,3.17,0,0,0-1.53-1.246,6.415,6.415,0,0,0-2.58-.437c-.568,0-1.071,0-1.487.022a5.006,5.006,0,0,0-.9.022Z" transform="translate(-54 -59.5)" fill="#010201"/>
          <path id="路径_55" data-name="路径 55" d="M151.593,89.241a7.738,7.738,0,0,0-2.1-.743,11.525,11.525,0,0,0-2.449-.284,4.4,4.4,0,0,0-1.312.153,1.123,1.123,0,0,0-.678.437,1.159,1.159,0,0,0-.175.59.972.972,0,0,0,.219.568,2.467,2.467,0,0,0,.743.59c.5.262,1.028.5,1.552.721a15.835,15.835,0,0,1,3.367,1.6,5.087,5.087,0,0,1,1.727,1.815,4.72,4.72,0,0,1,.5,2.252,5.087,5.087,0,0,1-.853,2.908,5.479,5.479,0,0,1-2.449,1.946,10.017,10.017,0,0,1-3.957.7,15.06,15.06,0,0,1-2.973-.284,8.819,8.819,0,0,1-2.23-.7.43.43,0,0,1-.24-.415v-3.8a.237.237,0,0,1,.087-.2.166.166,0,0,1,.2.022,9.359,9.359,0,0,0,2.711,1.071,10.178,10.178,0,0,0,2.58.328,4.173,4.173,0,0,0,1.815-.306,1.016,1.016,0,0,0,.59-.918,1.158,1.158,0,0,0-.525-.874,9.272,9.272,0,0,0-2.143-1.028,13.376,13.376,0,0,1-3.1-1.574,5.661,5.661,0,0,1-1.662-1.858,4.691,4.691,0,0,1-.5-2.23,5.142,5.142,0,0,1,.743-2.645,5.389,5.389,0,0,1,2.3-2.011,8.478,8.478,0,0,1,3.87-.765,18.847,18.847,0,0,1,2.711.2,7.692,7.692,0,0,1,1.88.5.384.384,0,0,1,.219.2,1.1,1.1,0,0,1,.044.262v3.564a.269.269,0,0,1-.109.219A.582.582,0,0,1,151.593,89.241Z" transform="translate(-121.423 -78.878)" fill="#010201"/>
        </g>
      </g>
    </g>
  </g>
</svg>
