<svg xmlns="http://www.w3.org/2000/svg" width="51" height="51" viewBox="0 0 51 51">
  <g id="Layer_2" data-name="Layer 2" transform="translate(0.5 0.5)">
    <g id="Surfaces">
      <g id="UI_UX_Surface" data-name="UI/UX Surface">
        <g id="Outline_no_shadow" data-name="Outline no shadow">
          <rect id="矩形_279" data-name="矩形 279" width="50" height="50" rx="9.914" fill="none" stroke="#010201" stroke-width="1"/>
        </g>
      </g>
    </g>
    <g id="Outlined_Mnemonics_Logos" data-name="Outlined Mnemonics &amp; Logos" transform="translate(5.601 10.355)">
      <g id="Xd">
        <path id="路径_59" data-name="路径 59" d="M29.5,14.419,22.619,25.5l7.363,11.991a.383.383,0,0,1,.037.278c-.025.087-.111.142-.259.167H24.506a.829.829,0,0,1-.777-.37c-.494-.962-.987-1.847-1.48-2.8s-1.017-1.917-1.572-2.9-1.1-1.985-1.646-3h-.037q-.74,1.48-1.535,2.96t-1.573,2.941c-.518.975-1.048,1.872-1.591,2.834a.524.524,0,0,1-.518.333H8.707a.151.151,0,0,1-.166-.148.368.368,0,0,1,.055-.259l7.141-11.659L8.781,14.382c-.074-.1-.086-.178-.037-.24a.27.27,0,0,1,.222-.093h5.217a.773.773,0,0,1,.333.056.674.674,0,0,1,.222.2c.444.987.937,1.692,1.48,2.678s1.091,1.961,1.646,2.923,1.067,1.936,1.536,2.923h.037q.74-1.517,1.5-2.96t1.554-2.9c.53-.974,1.042-1.66,1.536-2.622a.564.564,0,0,1,.148-.24.536.536,0,0,1,.3-.056h4.847a.212.212,0,0,1,.185.37Z" transform="translate(-8.536 -12.101)" fill="#010201"/>
        <path id="路径_60" data-name="路径 60" d="M39.745,38.372a11.462,11.462,0,0,1-4.939-1.036,7.855,7.855,0,0,1-3.46-3.126,10,10,0,0,1-1.258-5.236,9.662,9.662,0,0,1,1.258-4.847,9.238,9.238,0,0,1,3.663-3.552,11.825,11.825,0,0,1,5.809-1.332q.185,0,.481.019c.2.013.617.031.889.055V12.771a.6.6,0,0,1,.5-.67h3.581a.671.671,0,0,1,.669.669V33.858q0,.63.055,1.369t.093,1.332a.383.383,0,0,1-.222.37,16.973,16.973,0,0,1-3.57,1.11,20.069,20.069,0,0,1-3.552.333ZM42.1,33.784v-10.1a5.157,5.157,0,0,0-.71-.111,7.344,7.344,0,0,0-.759-.037,5.713,5.713,0,0,0-2.59.592,4.762,4.762,0,0,0-2.7,4.625,6.529,6.529,0,0,0,.389,2.368,4.5,4.5,0,0,0,1.036,1.628,3.944,3.944,0,0,0,1.554.925,6.087,6.087,0,0,0,1.905.3q.519,0,.962-.037a5.019,5.019,0,0,0,.914-.148Z" transform="translate(-8.536 -12.101)" fill="#010201"/>
      </g>
    </g>
  </g>
</svg>
