<svg xmlns="http://www.w3.org/2000/svg" width="85.433" height="101.32" viewBox="0 0 85.433 101.32">
  <g id="组_881" data-name="组 881" transform="translate(0)">
    <path id="路径_3791" data-name="路径 3791" d="M99.107,687.686h6.49a2.069,2.069,0,0,0,2.066-2.067V683.78a2.069,2.069,0,0,0-2.066-2.066h-6.49a2.069,2.069,0,0,0-2.066,2.066v1.839a2.069,2.069,0,0,0,2.066,2.067m.206-3.7h6.077v1.427H99.314Z" transform="translate(-80.341 -593.247)"/>
    <path id="路径_3792" data-name="路径 3792" d="M82.967,402.922H44.918a2.99,2.99,0,0,0-2.987,2.987l.214,4.04a2.991,2.991,0,0,0,2.987,2.954h.489l2.947,64.879a6.431,6.431,0,0,0,2.569,5.11v11.348a4.6,4.6,0,0,0,4.591,4.591H72.156a4.6,4.6,0,0,0,4.591-4.591V482.731a6.436,6.436,0,0,0,2.355-4.948L82.26,412.9h.493a2.991,2.991,0,0,0,2.987-2.954l.213-3.979,0-.061a2.99,2.99,0,0,0-2.987-2.987m-8.492,91.317a2.321,2.321,0,0,1-2.318,2.318H55.728a2.321,2.321,0,0,1-2.318-2.318v-9.968H74.475Zm2.356-16.54v.055a4.177,4.177,0,0,1-4.172,4.172H55.012a4.176,4.176,0,0,1-4.171-4.172L47.9,412.9H79.985Zm6.638-67.844,0,.061a.724.724,0,0,1-.714.715H45.132a.724.724,0,0,1-.714-.715l-.214-4.029a.724.724,0,0,1,.714-.691H82.967a.724.724,0,0,1,.714.691Z" transform="translate(-41.931 -398.937)"/>
    <path id="路径_3793" data-name="路径 3793" d="M248.416,533.3H233.977a4.13,4.13,0,0,0-4.125,4.125v26.991a4.131,4.131,0,0,0,4.125,4.126h14.439a4.131,4.131,0,0,0,4.125-4.126V537.425a4.13,4.13,0,0,0-4.125-4.125m-16.2,4.125a1.764,1.764,0,0,1,1.762-1.762h14.439a1.764,1.764,0,0,1,1.762,1.762v26.991a1.764,1.764,0,0,1-1.762,1.762H233.977a1.764,1.764,0,0,1-1.762-1.762Z" transform="translate(-172.907 -489.807)"/>
    <path id="路径_3794" data-name="路径 3794" d="M240.317,415.819V396.642a6.879,6.879,0,0,0-6.871-6.871H222.279a6.879,6.879,0,0,0-6.871,6.871v19.178a6.709,6.709,0,0,0-4.688,6.375V484.4a6.7,6.7,0,0,0,6.687,6.687h20.911a6.7,6.7,0,0,0,6.687-6.687v-62.21a6.709,6.709,0,0,0-4.688-6.375m-18.037-23.685h11.167a4.512,4.512,0,0,1,4.507,4.507v18.866h-1.527V412.5a3.58,3.58,0,0,0-3.378-3.57v-2.855h2.031a1.3,1.3,0,0,0,1.3-1.3v-4.608a1.3,1.3,0,0,0-1.3-1.3H224.751a1.947,1.947,0,0,0-1.945,1.945v8.118A3.576,3.576,0,0,0,219.3,412.5v3.008h-1.527V396.642a4.512,4.512,0,0,1,4.507-4.507m-.617,20.365a1.228,1.228,0,0,1,1.212-1.212h9.975a1.228,1.228,0,0,1,1.212,1.212v3.008h-12.4Zm12.355-11.274v2.484h-2.454a.88.88,0,0,0-.879.879v4.272H225.17v-7.636Zm4.3,87.5H217.407a4.328,4.328,0,0,1-4.323-4.323v-62.21a4.336,4.336,0,0,1,2.861-4.063,4.29,4.29,0,0,1,1.462-.26h20.911a4.289,4.289,0,0,1,1.462.26,4.336,4.336,0,0,1,2.861,4.063V484.4a4.328,4.328,0,0,1-4.323,4.323" transform="translate(-159.572 -389.771)"/>
  </g>
</svg>
