<svg xmlns="http://www.w3.org/2000/svg" width="109.09" height="76.158" viewBox="0 0 109.09 76.158">
  <g id="组_876" data-name="组 876" transform="translate(0 0)">
    <path id="路径_3783" data-name="路径 3783" d="M120.723,143.19a1.836,1.836,0,1,0,1.836,1.837,1.836,1.836,0,0,0-1.836-1.837" transform="translate(-82.861 -107.164)"/>
    <path id="路径_3784" data-name="路径 3784" d="M240.711,159.062h-19.5v2.265h2.269l3.045,6.09,2.026-1.013-2.539-5.077h4.814l3.045,6.09L235.9,166.4l-2.539-5.077h4.814l3.045,6.09,2.026-1.013-2.625-5.251,1.447.324a6.19,6.19,0,0,1,4.858,6.062v4.378H217.541v2.265h29.384v5.081H213.868v2.265h33.057v4.377a6.189,6.189,0,0,1-4.857,6.063l-1.447.325,2.625-5.251-2.026-1.013-3.045,6.091h-4.814l2.539-5.078-2.026-1.013-3.045,6.091h-4.814l2.539-5.078-2.026-1.013-3.045,6.091H218.67l2.539-5.078-2.026-1.013-3.045,6.091h-4.814l2.538-5.078-2.026-1.013-3.045,6.091h-7.779v2.265h39.7a8.5,8.5,0,0,0,8.479-8.479V167.54a8.5,8.5,0,0,0-8.479-8.478" transform="translate(-140.101 -118.226)"/>
    <path id="路径_3785" data-name="路径 3785" d="M37.862,24.3A37.862,37.862,0,1,0,75.725,62.165,37.905,37.905,0,0,0,37.862,24.3M73.41,64.039a35.6,35.6,0,0,1-.725,5.518l-.154.726-3.54-.948-.586,2.188,3.538.948-.229.706a35.535,35.535,0,0,1-2.134,5.14l-.338.66-3.167-1.828-1.132,1.962,3.162,1.826-.405.622a35.935,35.935,0,0,1-3.389,4.408l-.5.55-2.577-2.577-1.6,1.6,2.578,2.578-.552.5A35.924,35.924,0,0,1,57.254,92l-.622.406-1.826-3.163-1.962,1.132,1.829,3.168-.66.337a35.572,35.572,0,0,1-5.139,2.134l-.706.229-.948-3.538-2.188.586.948,3.54-.726.154a35.574,35.574,0,0,1-5.518.725l-.741.039V94.089H36.73v3.662l-.74-.039a35.578,35.578,0,0,1-5.518-.725l-.726-.154.949-3.54-2.188-.586-.948,3.538-.705-.229a35.579,35.579,0,0,1-5.14-2.134l-.66-.337,1.829-3.168-1.962-1.132-1.826,3.163L18.471,92a35.906,35.906,0,0,1-4.408-3.389l-.552-.5,2.578-2.577-1.6-1.6L11.91,86.516l-.5-.552a35.947,35.947,0,0,1-3.389-4.408l-.406-.623,3.162-1.826L9.649,77.147,6.481,78.975l-.337-.66A35.479,35.479,0,0,1,4.01,73.176l-.229-.706,3.538-.948-.586-2.188-3.54.948-.154-.726a35.587,35.587,0,0,1-.725-5.518L2.276,63.3H5.938V61.033H2.276l.038-.741a35.609,35.609,0,0,1,.725-5.518l.154-.726L6.733,55l.586-2.188-3.538-.948.229-.706a35.524,35.524,0,0,1,2.134-5.139l.337-.66,3.168,1.829,1.133-1.962L7.619,43.4l.405-.623a35.989,35.989,0,0,1,3.389-4.408l.5-.552,2.577,2.577,1.6-1.6-2.578-2.577.552-.5a35.944,35.944,0,0,1,4.408-3.389l.623-.406,1.826,3.163,1.962-1.133-1.829-3.168.66-.337a35.493,35.493,0,0,1,5.139-2.134l.706-.23.948,3.538,2.188-.586-.949-3.54.726-.154a35.637,35.637,0,0,1,5.518-.725l.741-.038v3.662h2.265V26.579l.741.038a35.641,35.641,0,0,1,5.518.725l.726.154-.948,3.54,2.188.586.948-3.539.706.23a35.514,35.514,0,0,1,5.14,2.135l.66.337-1.829,3.168,1.962,1.133,1.826-3.163.622.406a35.925,35.925,0,0,1,4.408,3.389l.552.5L59.635,38.79l1.6,1.6,2.577-2.576.5.55a35.941,35.941,0,0,1,3.39,4.408l.406.623-3.162,1.826,1.132,1.962,3.168-1.829.337.66a35.5,35.5,0,0,1,2.134,5.139l.229.706-3.538.948L68.992,55l3.54-.948.154.726a35.6,35.6,0,0,1,.725,5.518l.038.741H69.787V63.3h3.662Z" transform="translate(0 -24.303)"/>
    <path id="路径_3786" data-name="路径 3786" d="M80.1,84.908a19.5,19.5,0,1,0,19.5,19.5,19.52,19.52,0,0,0-19.5-19.5m5.031,3.814.193-.759.734.272a17.3,17.3,0,0,1,7.572,5.515l.483.613-.66.418a19.72,19.72,0,0,1-7.849,2.882l-.674.095-.118-.67a19.8,19.8,0,0,1,.318-8.366m-18.56,5.029a17.294,17.294,0,0,1,7.571-5.515l.733-.272.194.758a19.711,19.711,0,0,1,.32,8.367l-.118.671-.675-.1a19.88,19.88,0,0,1-7.847-2.881l-.662-.417Zm.246,20.382-.6.5-.434-.647a17.121,17.121,0,0,1-2.9-8.913l-.029-.778.778.05a19.709,19.709,0,0,1,8.054,2.283l.6.319-.3.612a19.851,19.851,0,0,1-5.171,6.577Zm17.969,6.852a17.139,17.139,0,0,1-9.372,0l-.748-.213.286-.723a19.709,19.709,0,0,1,4.659-6.956l.49-.473.489.473a19.82,19.82,0,0,1,4.658,6.954l.288.725Zm7.161-4.082a17.306,17.306,0,0,1-3.613,2.637l-.7.382-.295-.738a22.273,22.273,0,0,0-6.523-8.918,1.135,1.135,0,0,0-1.438,0,22.181,22.181,0,0,0-6.52,8.918l-.294.74-.7-.382a17.3,17.3,0,0,1-3.613-2.636l-.573-.545.608-.506a22.31,22.31,0,0,0,6.459-8.952,1.135,1.135,0,0,0-.444-1.369,22.183,22.183,0,0,0-10.5-3.447l-.79-.051.144-.779A17.1,17.1,0,0,1,64.546,97l.34-.715.67.423a22.321,22.321,0,0,0,10.519,3.379l.068,0a1.133,1.133,0,0,0,1.1-.847A22.176,22.176,0,0,0,77.272,88.2l-.2-.765.783-.106a16.785,16.785,0,0,1,4.483,0l.782.1-.194.766a22.255,22.255,0,0,0,.035,11.047,1.129,1.129,0,0,0,1.16.845,22.2,22.2,0,0,0,10.521-3.381l.67-.424.341.716a17.1,17.1,0,0,1,1.383,4.256l.144.778-.79.052a22.252,22.252,0,0,0-10.5,3.449,1.136,1.136,0,0,0-.445,1.369,22.233,22.233,0,0,0,6.461,8.949l.609.507Zm2.471-2.92-.434.647-.6-.5a19.78,19.78,0,0,1-5.173-6.576l-.3-.612.6-.319a19.789,19.789,0,0,1,8.053-2.284l.778-.051-.029.78a17.117,17.117,0,0,1-2.9,8.913" transform="translate(-42.24 -66.543)"/>
    <path id="路径_3787" data-name="路径 3787" d="M48.327,186.751l-2.038.991a27.059,27.059,0,0,0,23.132,14.48v-2.266a24.787,24.787,0,0,1-21.094-13.2" transform="translate(-32.262 -137.525)"/>
    <path id="路径_3788" data-name="路径 3788" d="M127.27,60.7v2.266a24.785,24.785,0,0,1,21.094,13.2l2.038-.99A27.056,27.056,0,0,0,127.27,60.7" transform="translate(-88.703 -49.668)"/>
    <path id="路径_3789" data-name="路径 3789" d="M51.864,72.631l-.991-2.038a27.056,27.056,0,0,0-14.48,23.132h2.265A24.574,24.574,0,0,1,51.864,72.631" transform="translate(-25.365 -56.565)"/>
    <path id="路径_3790" data-name="路径 3790" d="M162.448,172.666l.991,2.038a27.056,27.056,0,0,0,14.48-23.132h-2.266a24.785,24.785,0,0,1-13.2,21.093" transform="translate(-113.222 -113.006)"/>
  </g>
</svg>
