<svg xmlns="http://www.w3.org/2000/svg" width="88.921" height="75.616" viewBox="0 0 88.921 75.616">
  <g id="组_880" data-name="组 880" transform="translate(0)">
    <path id="路径_3814" data-name="路径 3814" d="M610.793,658.133a.8.8,0,0,0,0-.728c-.821-1.684-1.89-2.063-2.642-2.084l-14.039-.4c-1.142-.025-2.185.76-2.913,2.231a12.533,12.533,0,0,0-.263,9.323c.644,1.51,1.632,2.359,2.783,2.392l1.847.052a.865.865,0,1,0,.048-1.725l-1.847-.052c-.22-.006-.694-.357-1.1-1.3a10.947,10.947,0,0,1,.225-7.959c.451-.91.939-1.236,1.162-1.236h.006l11.5.324a6.294,6.294,0,0,0-.323.577,12.535,12.535,0,0,0-.263,9.324,6.335,6.335,0,0,0,.29.595l-5.988-.169a.918.918,0,0,0-.824.42.842.842,0,0,0-.024.839.916.916,0,0,0,.8.466l8.529.241h.068c1.123,0,2.131-.79,2.845-2.231a11.442,11.442,0,0,0,1.031-4.636,12.459,12.459,0,0,0-.426-3.714.864.864,0,0,0-.486-.553m-2.977,9.408h-.006c-.22-.006-.694-.358-1.1-1.3a10.949,10.949,0,0,1,.225-7.959c.451-.91.938-1.237,1.161-1.237h.006c.237.007.636.34.991,1.069a.884.884,0,0,0,.433.418.809.809,0,0,0-.055.593,10.816,10.816,0,0,1,.364,3.221,9.8,9.8,0,0,1-.862,3.958c-.451.91-.939,1.236-1.162,1.236" transform="translate(-545.318 -593.651)"/>
    <path id="路径_3816" data-name="路径 3816" d="M528.142,496.625h0c-.012-.017-.027-.03-.039-.046a9.493,9.493,0,0,0,1.786-1.5c1.1-1.216,1.46-2.469,1.009-3.527l-.725-1.7a.865.865,0,1,0-1.587.677l.725,1.7c.086.2-.035.78-.723,1.54a8.068,8.068,0,0,1-1.706,1.382,2.861,2.861,0,0,0-2.73-.8l-4.772,1.356-.445-1.044a.8.8,0,0,0,.091-.892,4.465,4.465,0,0,0-1.062-1.384l-2.31-5.417h0l-.231-.541-.262-.613h.442l.107.012.006-.011h.051l.032,0h.592l.007-.014a12.216,12.216,0,0,0,4.044-.986,11.446,11.446,0,0,0,3.937-2.657,6.365,6.365,0,0,0,.419-.513l2.35,5.511a.916.916,0,0,0,.83.579.827.827,0,0,0,.326-.067.886.886,0,0,0,.431-1.189l-3.347-7.848a2.868,2.868,0,0,0-2.192-1.588l.05-.084-.075,0a13.56,13.56,0,0,0,.617-1.555,12.451,12.451,0,0,0,.64-3.683.858.858,0,0,0-.321-.667.8.8,0,0,0,.22-.7c-.312-1.846-1.23-2.512-1.946-2.745l-13.356-4.344c-1.094-.356-2.31.112-3.424,1.318a8.66,8.66,0,0,0-.9,1.178l-.034-.058-.031.06a13.6,13.6,0,0,0-1.07-1.315h0a12.446,12.446,0,0,0-2.9-2.353.855.855,0,0,0-.734-.048c0-.007,0-.015-.005-.022a.8.8,0,0,0-.5-.507c-1.766-.628-2.793-.15-3.345.362l-1.747,1.618a.989.989,0,0,0-.029-.413l-2.387-8.191c-.322-1.1-1.393-1.847-3.016-2.089a11.428,11.428,0,0,0-4.729.441,12.454,12.454,0,0,0-3.4,1.544.864.864,0,0,0-.379.632.8.8,0,0,0-.692.219c-1.351,1.3-1.384,2.431-1.173,3.154l2.587,8.88.364,1.248a8.582,8.582,0,0,1-1.412,2.193c-.7.752-1.262.922-1.471.854l-4.923-1.61h0l-1.516-.5h0l-4.5-1.47a6.191,6.191,0,0,0,.474-.462,12.535,12.535,0,0,0,2.9-8.865,6.369,6.369,0,0,0-.109-.652l5.694,1.862a.865.865,0,1,0,.536-1.64l-8.11-2.652c-1.094-.357-2.311.109-3.426,1.312a11.443,11.443,0,0,0-2.3,4.153,12.456,12.456,0,0,0-.645,3.682.857.857,0,0,0,.31.668.8.8,0,0,0-.211.7,4.209,4.209,0,0,0,.718,1.85l-4.029-.114c-1.148-.023-2.185.76-2.913,2.231a12.535,12.535,0,0,0-.263,9.323,3.689,3.689,0,0,0,2.209,2.3l-6.046,6.2c-.8.824-.921,2.121-.334,3.654a11.051,11.051,0,0,0,2.286,3.46l0,.008.018.018a9.921,9.921,0,0,0-.5,1.812l-7.784-.22c-1.142-.027-2.184.76-2.913,2.231a12.535,12.535,0,0,0-.263,9.323c.645,1.509,1.632,2.358,2.783,2.391l1.847.052h.029a.864.864,0,1,0,.019-1.725l-1.847-.052c-.22-.006-.694-.358-1.1-1.3a10.948,10.948,0,0,1,.225-7.959c.451-.91.939-1.236,1.162-1.236h.006l8.254.233.491.014.741.021,2.012.057a6.3,6.3,0,0,0-.323.578,11.446,11.446,0,0,0-1.031,4.636c-.006.231,0,.471,0,.717l-.036-.012.062.669,0,.061,0,0,.022.23a10.231,10.231,0,0,0,.712,3.019,6.369,6.369,0,0,0,.29.595l-5.987-.169a.9.9,0,0,0-.824.42.842.842,0,0,0-.024.839.917.917,0,0,0,.8.466l8.529.241h.067c1.123,0,2.132-.79,2.846-2.232a9.813,9.813,0,0,0,.8-2.51h1.359a5.591,5.591,0,0,0,.3,1.079,12.534,12.534,0,0,0,6.678,6.511,5.121,5.121,0,0,0,1.7.325,2.621,2.621,0,0,0,1.944-.75l1.29-1.323a.865.865,0,1,0-1.235-1.2l-1.29,1.323c-.154.158-.733.268-1.7-.075a10.948,10.948,0,0,1-5.7-5.559,3.637,3.637,0,0,1-.246-1.011h0a1.75,1.75,0,0,1,0-.331h0a.629.629,0,0,1,.125-.353l2.037-2.089.752-.771.34-.349,4.475-4.589.426-.437c.009.034.021.07.031.105l-.053,0,.189.437-.043,0,.3.594.084.195h.014l.023.045,0,0,.2.385h.011a12.564,12.564,0,0,0,2.161,2.757,11.443,11.443,0,0,0,3.967,2.611,6.139,6.139,0,0,0,.638.186l-4.186,4.292a.916.916,0,0,0-.25.89.841.841,0,0,0,.6.586.852.852,0,0,0,.21.026.944.944,0,0,0,.674-.3l4.73-4.85h0l.023-.024a6.006,6.006,0,0,0,.582.31h0a12.535,12.535,0,0,0,9.327,0c1.491-.687,2.312-1.7,2.312-2.849v-1.848a.865.865,0,1,0-1.725,0v1.848c0,.221-.338.7-1.269,1.133a10.959,10.959,0,0,1-7.9.024,3.423,3.423,0,0,0,.214-3.506,10.166,10.166,0,0,0-1.541-2.6v-6.553a6.569,6.569,0,0,0,.786.395l.331.141h0l.4.13a12.4,12.4,0,0,0,3.728.541,12.112,12.112,0,0,0,3.944-.615l.009,0h0l1.3.254v5.143a.865.865,0,1,0,1.725,0v-.31c.086.169.175.337.269.5a12.71,12.71,0,0,0,2.031,2.715,10.625,10.625,0,0,0,.853,3.578c.687,1.491,1.7,2.311,2.849,2.311h1.848a.865.865,0,1,0,0-1.725h-1.848c-.22,0-.7-.338-1.133-1.269a14.581,14.581,0,0,1-.6-1.46,2.788,2.788,0,0,0,1.056.219,3.249,3.249,0,0,0,1.966-.791c.086-.065.175-.131.222-.158l-.008-.015,9.25-5.218a11.863,11.863,0,0,0-.412,2.331l-1.981.563c-1.107.314-1.856,1.381-2.109,3a9.941,9.941,0,0,0,.008,2.8h-.748a.865.865,0,1,0,0,1.725h1.095c.019.071.034.141.054.211h0a11.449,11.449,0,0,0,2.14,4.24,3.743,3.743,0,0,0,2.726,1.535,2.359,2.359,0,0,0,.646-.09l1.777-.5a.945.945,0,0,0,.55-.4.841.841,0,0,0-.345-1.217.945.945,0,0,0-.677-.048l-1.777.505c-.211.058-.769-.133-1.436-.911a9.8,9.8,0,0,1-1.809-3.625c-.046-.163-.088-.325-.127-.487h0c-.034-.144-.065-.286-.093-.428v-.007a9.006,9.006,0,0,1-.145-3.111h0c.158-1.012.531-1.47.743-1.53l1.458-.414.529-.15.747-.212.02-.006,4.33-1.23v0l.708-.2,3.274-.93c-.036.138-.063.287-.091.434l-.036.165-.009.047c0,.011,0,.024,0,.035l-.011.073-.014,0-.012.162-.091.566.049-.008-.044.576.036,0a12.647,12.647,0,0,0,.5,3.33,11.449,11.449,0,0,0,2.14,4.24,6.318,6.318,0,0,0,.455.48l-5.762,1.637a.945.945,0,0,0-.55.4.844.844,0,0,0-.1.686.861.861,0,0,0,.848.617,1.031,1.031,0,0,0,.277-.039l8.208-2.332c1.107-.314,1.855-1.381,2.108-3a11.451,11.451,0,0,0-.409-4.732,12.449,12.449,0,0,0-1.522-3.414M500.4,499.309a.806.806,0,0,0-.256-.544c-.164-.153-.335-.326-.506-.516l0,0a11.411,11.411,0,0,1-1.465-2.054,9.8,9.8,0,0,1-1.3-3.835c0-.044,0-.087,0-.131l2.836.556a2.233,2.233,0,0,0,.428.041,2.415,2.415,0,0,0,.289-.022c.085.108.172.224.264.351l0,.006q.139.19.272.39c.188.283.349.543.492.8a9.8,9.8,0,0,1,1.3,3.835c.084,1.021-.171,1.553-.363,1.662s-.719.037-1.4-.4a.872.872,0,0,0-.589-.128m-38.926,1.915a10.82,10.82,0,0,1,.364,3.222,9.8,9.8,0,0,1-.862,3.958c-.451.91-.938,1.236-1.162,1.236h-.006c-.22-.006-.694-.357-1.1-1.3a8.484,8.484,0,0,1-.579-2.417l-.025-.242-.012-.187c-.025-.381-.032-.769-.021-1.154a9.8,9.8,0,0,1,.862-3.958c.45-.91.938-1.236,1.162-1.236h.006c.237.006.635.339.991,1.068a.877.877,0,0,0,.439.412.805.805,0,0,0-.061.6m-2.082-31.263h.006l8.189.231h0l2.817.921.049.016a11.72,11.72,0,0,0-.911,4.37,11.437,11.437,0,0,0,.768,4.687,6.272,6.272,0,0,0,.29.595l-.415-.012c-.111-.116-.219-.233-.335-.347h0a12.464,12.464,0,0,0-3.02-2.2.858.858,0,0,0-.74-.008.8.8,0,0,0-.528-.505c-1.8-.538-2.8-.009-3.323.531l-2.191,2.246-.947-.027c-.22-.006-.694-.358-1.1-1.3a10.948,10.948,0,0,1,.225-7.959c.451-.91.939-1.236,1.162-1.236m17.413,3.245a.826.826,0,0,0-.343,0,.917.917,0,0,0-.653.655l-.1.328-.544,1.863-.024.134a9.447,9.447,0,0,1-.835,3.426,4.354,4.354,0,0,1-.3.515c-.366.541-.7.741-.867.721h0c-.22-.006-.694-.357-1.1-1.3a9.8,9.8,0,0,1-.637-4,9.939,9.939,0,0,1,.811-3.845Zm11.914-2.157.251-.232.686-.636h0l5.727-5.306a6.23,6.23,0,0,0,.173.639,12.533,12.533,0,0,0,6.339,6.841c.062.026.123.047.185.07l.237.339-4.191,3.884a.946.946,0,0,0-.311.6.84.84,0,0,0,.84.928h.02a.944.944,0,0,0,.624-.265l3.3-3.061a9.979,9.979,0,0,1-.415,3.877c-.029.1-.062.2-.1.307l-1.522-.3a.865.865,0,1,0-.331,1.693l1.8.353c.02.006.039.015.058.022h0a.717.717,0,0,1,.248.193,3.009,3.009,0,0,1,.568,1.249,8.715,8.715,0,0,1,.15,2.772l-.141.993a11.361,11.361,0,0,1-1.5,4.049,3.877,3.877,0,0,1-.614.683l-.278.179a1.073,1.073,0,0,1-.356.155.426.426,0,0,1-.149.011l-3.755-.736h0v-1.969c0-1.151-.821-2.162-2.312-2.849a10.277,10.277,0,0,0-3.177-.818l.009-.027h-.025c.062-.245.118-.49.166-.731a13.12,13.12,0,0,0,.244-2.787l.141.1-.265-1.546c-.03-.178-.066-.351-.106-.519a6.211,6.211,0,0,0-.2-.656l6.492,1.173a.926.926,0,0,0,.723-.142.787.787,0,0,0,.372-.475.766.766,0,0,0-.114-.616l-.029-.05a.945.945,0,0,0-.628-.412l-8.465-1.543.017-.057-.621-.053-.207-.038-.005.019-.333-.029a8.133,8.133,0,0,1-.979-1.937,4.233,4.233,0,0,1-.166-.685h0a2.551,2.551,0,0,1-.029-.465h0a.845.845,0,0,1,.163-.55Zm-22.787,8.794a10.78,10.78,0,0,1,2.57,1.872l.112.111q.22.219.426.443a9.2,9.2,0,0,1,1.835,2.805h0a4.037,4.037,0,0,1,.218.792h0a2.432,2.432,0,0,1,.035.354h0a.838.838,0,0,1-.135.549c-.154.158-.734.268-1.7-.075a7.26,7.26,0,0,1-1.216-.577l0,0q-.214-.125-.428-.266l0,0a11.713,11.713,0,0,1-1.721-1.4,9.8,9.8,0,0,1-2.327-3.316c-.367-.957-.271-1.539-.118-1.7s.68-.237,1.457,0a.877.877,0,0,0,.6-.043.8.8,0,0,0,.4.449m6.892,5.182h0l-.041,0a5.86,5.86,0,0,0-.221-.706,9.215,9.215,0,0,0-.944-1.787l1.476.042h.064c.057,0,.113-.009.17-.014a3.225,3.225,0,0,0,.955,2.327l-.234.021Zm10.61-1.583c-.043.338-.078.673-.095,1a2.459,2.459,0,0,0-1.315-.257l-5.124.467a7.039,7.039,0,0,1-.929-.671c-.773-.673-.962-1.232-.9-1.443s.522-.581,1.535-.731a9.8,9.8,0,0,1,4.031.4,10.9,10.9,0,0,1,2.8,1.237m2.638,1.6-.326.086-.02,0a.852.852,0,0,0-.532.32,10.921,10.921,0,0,1,.094-1.811c.027-.205.061-.412.1-.619v-.008l.044-.238a9.723,9.723,0,0,1,1.478-3.661,3.319,3.319,0,0,1,.86-.863,1.089,1.089,0,0,1,.35-.156h0a.594.594,0,0,1,.068-.012h0a.3.3,0,0,1,.072,0,.309.309,0,0,1,.073.025h0a2.075,2.075,0,0,1,.763,1.321l.051.189.028.024.078.6a10.635,10.635,0,0,1-.154,3.351c-.069.352-.16.7-.261,1.051a12.7,12.7,0,0,0-2.771.389m-24.886-3.251h0l.514-.527a6.255,6.255,0,0,0,.206.629,11.442,11.442,0,0,0,2.71,3.9,13.68,13.68,0,0,0,1.265,1.09l-.016.018.449.3-.015.018.4.244.23.155.009-.011,0,0,.459.278.01-.011a8.463,8.463,0,0,0,1.17.527,6.192,6.192,0,0,0,.634.19L465.5,492.4l.018.2c-.011.026-.014.048-.022.074h-8.069a2.721,2.721,0,0,0-2.048,1.048,8.948,8.948,0,0,1-1.594-2.529c-.367-.957-.272-1.539-.118-1.7Zm8.406,17.861c0-.271.011-.561.034-.885v0q.015-.216.038-.428h0a8.735,8.735,0,0,1,.677-2.664c.429-.931.912-1.269,1.133-1.269.237,0,.644.322,1.02,1.041a.925.925,0,0,0,.9.476l-3.8,3.895c0-.054-.005-.108-.005-.162m9.942-5.185h0Zm2.791-6.08v7.481l-.257-.382c-.06-.09-.12-.184-.177-.283a9.8,9.8,0,0,1-1.108-3.9,10.127,10.127,0,0,1,.317-3.814l.064-.2s0-.01,0-.015c.035-.1.074-.193.113-.284h0c.307-.719.673-1.061.9-1.082.206-.022.551.188.921.675a2.569,2.569,0,0,0-.778,1.8m-.849-16.083a8.306,8.306,0,0,0,.715-.9l.256.879a3.129,3.129,0,0,0,2.587,2.009l0,.019.029,0a5.787,5.787,0,0,0,.189.745,9.335,9.335,0,0,0,.967,2.018l-.019.011.042.059a5.4,5.4,0,0,0-.885.965,10.7,10.7,0,0,0-1.526,3.356l-.031-.021-.01.046a13.073,13.073,0,0,0-2.63-1.08,11.439,11.439,0,0,0-4.728-.445,6.32,6.32,0,0,0-.648.13l.6-2.055h0l.6-2.037.485-1.658a.917.917,0,0,0-.2-.9.826.826,0,0,0-.232-.164l1.014.332a2.354,2.354,0,0,0,.736.117,3.815,3.815,0,0,0,2.69-1.429m-18.2,28.483a.858.858,0,0,0-.5-.549.8.8,0,0,0,.014-.731c-.821-1.684-1.89-2.063-2.642-2.084l-4.369-.123a8.015,8.015,0,0,1,.4-1.355v0l.017-.043c.032-.078.062-.156.1-.228s.073-.147.119-.234h0c.375-.71.789-1.034,1.014-1.034h8.285l.068,0v0h3.15a6.313,6.313,0,0,0-.307.586A9.345,9.345,0,0,0,467.99,497l-.037-.023-.085.688-.025-.01-.048.606-.014.113,0,0-.012.149-.037.462.008,0c-.011.223-.018.441-.018.654a13.517,13.517,0,0,0,.141,1.936l-2.4,2.464a2.334,2.334,0,0,0-.518.849h-1.262c.008-.133.017-.266.02-.4a12.45,12.45,0,0,0-.426-3.714m10.9-6.1c-.868-1.66-1.947-2.008-2.7-2.008h-3.828l4.581-4.7a2.433,2.433,0,0,0,.629-1.221l.052,0,5.513-.5h0l1.228-.112-.113.266,0,.006-.009.022-.024-.006-.077.241-.172.4.04.009-.179.564.032.008a12.349,12.349,0,0,0-.22,3.825,13.273,13.273,0,0,0,.446,2.424.881.881,0,0,0-.249.072.8.8,0,0,0-.529-.506c-1.8-.538-2.8-.008-3.323.531l-1,1.028a.822.822,0,0,0-.093-.34m2.855,3.071h0q-.11-.2-.2-.4l0,0c-.083-.173-.148-.323-.2-.458-.367-.957-.272-1.539-.118-1.7s.68-.237,1.457,0a.877.877,0,0,0,.6-.043.8.8,0,0,0,.4.449,10.057,10.057,0,0,1,1.85,1.231l.631.52.557.6c.15.161.3.337.47.539l.307.372v.013l.121.167a7.969,7.969,0,0,1,1.006,1.791c.367.957.272,1.539.118,1.7a.592.592,0,0,1-.315.131h0a1.79,1.79,0,0,1-.447.011h0a3.835,3.835,0,0,1-.931-.217,9.8,9.8,0,0,1-3.373-2.243,10.916,10.916,0,0,1-1.92-2.458m25.693-4.92.023-.008-.354-.49-.121-.181-.008,0-.019-.027,0,0-.074-.1.02-.012-.031-.037a5.487,5.487,0,0,0,.825-.915,13.166,13.166,0,0,0,1.815-4.705.73.73,0,0,0,.013-.1l.081-.717a10.608,10.608,0,0,0-.158-3.629,4.579,4.579,0,0,0-.965-1.985l.017-.044-.007-.005c.074-.212.142-.419.2-.623a11.76,11.76,0,0,0,.492-4.3l-.013-.14-.07-.121a3.114,3.114,0,0,1-.323-.88l5.978,1.747a1,1,0,0,0,.284.042.861.861,0,0,0,.845-.61.886.886,0,0,0-.645-1.088l-5.243-1.532h0l.272-.251c.844-.782,1.028-2.072.518-3.632a8.066,8.066,0,0,0-.324-.812,8.3,8.3,0,0,1,1.268-1.9c.695-.751,1.259-.924,1.47-.856l10.939,3.558a6.277,6.277,0,0,0-.473.463,11.442,11.442,0,0,0-2.3,4.156,13.276,13.276,0,0,0-.555,2.465,2.3,2.3,0,0,0-.283-.106l-1.773-.518a.939.939,0,0,0-.676.042.84.84,0,0,0-.355,1.214.944.944,0,0,0,.547.4l1.774.518c.211.062.581.522.731,1.535.012.085.02.175.029.264l-.313-.1-.253.162a10.935,10.935,0,0,0-1.225.9h0a.862.862,0,0,0-.3.68.8.8,0,0,0-.664.294,3.811,3.811,0,0,0-.976,2.172c-.045-.033-.089-.07-.133-.1-1.33-.961-2.615-1.18-3.617-.614l-1.61.908a.865.865,0,1,0,.848,1.5l1.609-.908c.192-.108.779-.051,1.61.549a9.654,9.654,0,0,1,2.486,2.893l.01.015.041.069c.024.04.049.081.072.122s.037.069.056.1l.093.175a9.605,9.605,0,0,1,1.154,3.557,3.723,3.723,0,0,1-.038,1l-.1.535-10.24,5.776a6.321,6.321,0,0,0-.021-.661,11.444,11.444,0,0,0-1.507-4.5c-.029-.051-.062-.105-.093-.157l.025-.008Zm13.517-8.867h0c-.164.009-.307.01-.437.008l-.15-.007c-.9-.044-1.414-.309-1.511-.538s.043-.719.557-1.346a.876.876,0,0,0,.191-.572c.014,0,.027,0,.041,0a.806.806,0,0,0,.528-.2,9.732,9.732,0,0,1,1.474-1.029l.508-.293v0l.533-.243c.086-.039.171-.078.258-.116a11.053,11.053,0,0,1,2.884-.81c.255-.032.482-.052.7-.059h0c.127,0,.252-.006.375,0,1.025.029,1.525.341,1.611.544s-.035.781-.723,1.54a9.791,9.791,0,0,1-3.368,2.251,10.339,10.339,0,0,1-3.467.864m5.77-9.139a11.652,11.652,0,0,1-.941,2.141,12.113,12.113,0,0,0-3.146.782c0-.024-.008-.046-.011-.07a10.947,10.947,0,0,1,2.462-7.572c.7-.752,1.259-.924,1.469-.856.225.073.514.505.649,1.305a.874.874,0,0,0,.3.519.805.805,0,0,0-.227.556,10.834,10.834,0,0,1-.56,3.194m-6.821,19.932c.055-.119.118-.24.193-.371l.4-.7.4-.159a.4.4,0,0,1,.132-.035.54.54,0,0,1,.277.107l1.1,2.587-3.149.895a8.3,8.3,0,0,1,.635-2.319m-15.509-31.087a10.809,10.809,0,0,1,2.515,2.045,11.489,11.489,0,0,1,1.489,2c-.142.342-.275.685-.385,1.026a13.4,13.4,0,0,0-.485,1.99c-.042-.016-.083-.028-.125-.045a10.944,10.944,0,0,1-5.411-5.84c-.318-.974-.193-1.551-.032-1.7s.692-.2,1.456.07a.881.881,0,0,0,.6-.009.8.8,0,0,0,.374.466m-30.5-4.486a10.948,10.948,0,0,1-2.474,7.568c-.7.751-1.26.921-1.471.854s-.512-.506-.646-1.306a.882.882,0,0,0-.3-.524.806.806,0,0,0,.221-.552,10.811,10.811,0,0,1,.565-3.193,9.8,9.8,0,0,1,1.95-3.551c.7-.751,1.261-.921,1.471-.854s.564.54.682,1.557m16.138,30.33c-.931-.429-1.269-.912-1.269-1.133a.9.9,0,0,1,.342-.545l.572-.527,1.143-.359.044-.012.018,0,0,0a10.8,10.8,0,0,1,2.944-.427l.35,0,.087,0,.162.005h0a9.527,9.527,0,0,1,3.566.74c.931.429,1.269.912,1.269,1.132s-.338.7-1.269,1.133c-.157.072-.339.144-.574.226a8.243,8.243,0,0,1-.891.254h0a11.416,11.416,0,0,1-2.513.269,10.529,10.529,0,0,1-3.391-.518l-.39-.135ZM526.056,505.2a9.8,9.8,0,0,1-1.809-3.625,10.436,10.436,0,0,1-.419-3.593c.012-.141.028-.278.049-.412l.025-.143c.158-.878.484-1.349.721-1.416.214-.059.669.12,1.2.66l.327.331.322-.164,0,0a.8.8,0,0,0,.081.741,10.81,10.81,0,0,1,1.315,2.964,9.794,9.794,0,0,1,.367,4.035c-.158,1.013-.53,1.469-.743,1.53s-.769-.132-1.436-.911m-37.28-36.557h0l-.9.836-2.1,1.946a2.4,2.4,0,0,0-.636,1c-.662-.178-.982-.454-1.033-.626l-.74-2.538h0l-.265-.909-.035-.12-.148-.506-.115-.4-.082-.281-1.833-6.291a6.4,6.4,0,0,0,.649.131,12.534,12.534,0,0,0,8.955-2.609,6.338,6.338,0,0,0,.477-.458l1.676,5.751a.9.9,0,0,0,.88.676Zm-7.886-11.6a.88.88,0,0,0,.265-.54.807.807,0,0,0,.581-.13,10.812,10.812,0,0,1,2.955-1.335,9.783,9.783,0,0,1,4.031-.394c1.014.151,1.473.521,1.535.733s-.128.77-.9,1.442a10.943,10.943,0,0,1-7.644,2.227c-1.014-.151-1.473-.521-1.535-.733-.066-.228.129-.709.713-1.27" transform="translate(-442.166 -452.72)"/>
  </g>
</svg>
