<svg xmlns="http://www.w3.org/2000/svg" width="101.064" height="55.272" viewBox="0 0 101.064 55.272">
  <g id="组_877" data-name="组 877" transform="translate(0)">
    <path id="路径_3781" data-name="路径 3781" d="M429.093,129.4l-.005.032A7.071,7.071,0,0,0,431,134.94a9.091,9.091,0,0,0,6.528,3.065h22.422a2.418,2.418,0,0,0,1.718-.722,2.262,2.262,0,0,0,.652-1.424l.032-.416,2.678.466a1.111,1.111,0,0,0,1.282-.9,1.107,1.107,0,0,0-.9-1.281l-2.465-.429a2.376,2.376,0,0,0-2.827,2.142l-.027.349h-5.768l-.054-.315a8.426,8.426,0,0,0-8.329-7.026H432.012l3.543-6.818a.993.993,0,0,1,.48-.448l.06-.026.065,0a1.1,1.1,0,0,0,.281-.057l.068-.017a77.536,77.536,0,0,1,13.578-.822c1.829.051,3.652.172,5.419.358,1.621.171,3.261.406,4.875.7,2.6.49,5.163,1.1,7.618,1.809,1.923.557,3.84,1.219,5.695,1.86,1.927.666,3.92,1.355,5.911,1.921,2.108.6,4.251,1.126,6.368,1.565,10.477,2.062,22.016,1.3,34.314-2.263l.824-.239-3.078,6.25-10.881,3.225a8.451,8.451,0,0,1-2.4.348h-2.341l-.056-.018-16.389-5.265a5.722,5.722,0,0,0-5.78,1.372l-3.82,3.757-4.765-.83a1.108,1.108,0,1,0-.38,2.183l5.325.927a6.073,6.073,0,0,0,1.038.09h27.169a10.666,10.666,0,0,0,3.032-.44l16.4-4.862a7.889,7.889,0,0,0,5.616-7.519V121.4a1.984,1.984,0,0,0-.571-1.389l-.1-.107,0-.15a10.718,10.718,0,0,0-4.434-8.467,1.108,1.108,0,0,0-1.294,1.8,8.441,8.441,0,0,1,3.492,6.227l.022.285-.268.1a8,8,0,0,0-4.083,3.392l-.074.123-.136.044c-11.783,3.774-22.865,4.967-32.941,3.541l-8.524-1.846-.252-.068c-.14-.038-.279-.076-.418-.115-.576-.164-1.112-.323-1.62-.478l-7.692-2.6c-.753-.243-1.5-.473-2.285-.7l-.219-.062-8.353-1.925c-1.446-.245-2.9-.446-4.3-.595-.33-.035-.662-.065-1-.1l-.344-.031-.005-1.07a7.325,7.325,0,0,0-7.318-7.315h-9.888V109.3a28.805,28.805,0,0,1,1.011-7.566l1.676-6.159a.981.981,0,0,1,1.689-.382l1.234,1.431a1.108,1.108,0,1,0,1.677-1.448l-1.235-1.431A3.2,3.2,0,0,0,437.74,95l-1.677,6.159a31.032,31.032,0,0,0-1.089,8.148v9.924l-.184.11a3.206,3.206,0,0,0-1.2,1.271l-4.4,8.461c-.012.024-.025.054-.037.084l-.012.032c-.01.029-.019.057-.026.087l-.378-.051.369.085c-.007.03-.012.062-.017.093m50.274,6.391,2.372-2.332a3.518,3.518,0,0,1,3.549-.842l9.88,3.175Zm44.876-11.166a5.753,5.753,0,0,1,2.811-2.7l.533-.238v3.5a5.662,5.662,0,0,1-4.029,5.395l-2.632.78Zm-87.054-12.51h9.888a5.107,5.107,0,0,1,5.1,5.1v.912l-.4-.02a79.257,79.257,0,0,0-14.165.578l-.428.056Zm8.754,18.549a6.24,6.24,0,0,1,6.032,4.651l.125.475H437.531a6.24,6.24,0,0,1-6.032-4.651l-.125-.475Z" transform="translate(-428.74 -82.733)"/>
    <path id="路径_3782" data-name="路径 3782" d="M560.869,86.431l-7.476-.731a82.2,82.2,0,0,1-8.942-1.38l-.1-.036a128.417,128.417,0,0,1-13.833-8.5l-.337-.238.4-.472a1.109,1.109,0,0,0-.136-1.561,1.108,1.108,0,0,0-1.56.136l-.5.6-.286-.212c-.986-.731-1.948-1.464-2.856-2.179l-.308-.242.419-.5a1.108,1.108,0,1,0-1.7-1.425l-.449.534-.289-.238c-.994-.819-1.964-1.643-2.884-2.448l-.279-.245.427-.508a1.109,1.109,0,0,0-.135-1.561,1.107,1.107,0,0,0-1.561.136l-.382.454-.292-.267c-1.664-1.525-3.3-3.105-4.86-4.7a.983.983,0,0,0-.072-.067,3.51,3.51,0,0,0-4.844.277,15.122,15.122,0,0,0-2.468,3.8,17.157,17.157,0,0,0-1.673,8.474l.016.222-.186.122a13.253,13.253,0,0,1-11.555,1.4,1.108,1.108,0,0,0-.733,2.091,15.386,15.386,0,0,0,16.325-4.008,3.283,3.283,0,0,1,4.07-.568l.38.228-1.87,2.225a1.109,1.109,0,0,0,.136,1.561,1.136,1.136,0,0,0,1.561-.135l2.087-2.484,3.916,2.378-1.3,1.542a1.109,1.109,0,0,0,.135,1.561,1.136,1.136,0,0,0,1.561-.136l1.549-1.843.273.151c1.061.588,2.146,1.159,3.226,1.7l.43.215-.98,1.165a1.109,1.109,0,0,0,.136,1.561,1.137,1.137,0,0,0,1.561-.135l1.353-1.61.262.119a85.79,85.79,0,0,0,17.436,5.764l.031.008a1.121,1.121,0,0,0,.2.043l.037.006a84.5,84.5,0,0,0,9.223,1.425l7.476.731a1.108,1.108,0,0,0,.215-2.205m-47.218-15.32-.652-.4a5.517,5.517,0,0,0-6.223.364l-.706.55.1-.89a15.172,15.172,0,0,1,1.4-4.917,12.984,12.984,0,0,1,2.086-3.247,1.3,1.3,0,0,1,1.735-.15l.041.036c1.6,1.632,3.279,3.249,4.981,4.806l.268.245Zm5.834,3.54-.276-.164c-.248-.147-.5-.294-.742-.444l-2.9-1.766,2.762-3.287.291.254c.915.8,1.88,1.619,2.867,2.433l.295.243Zm5.9,3.158-.266-.13c-1.1-.537-2.2-1.105-3.275-1.689l-.407-.222,2.064-2.456.288.227c.931.732,1.885,1.462,2.837,2.17l.323.24Zm7.58,3.212c-1.688-.618-3.385-1.3-5.041-2.037l-.461-.2,1.285-1.53.285.2c1.391.985,2.827,1.96,4.268,2.9l2.81,1.826Z" transform="translate(-471.92 -59.944)"/>
  </g>
</svg>
