<svg xmlns="http://www.w3.org/2000/svg" width="101.211" height="56.521" viewBox="0 0 101.211 56.521">
  <g id="组_885" data-name="组 885" transform="translate(0)">
    <path id="路径_3817" data-name="路径 3817" d="M153.9,1366.61a.906.906,0,0,0,.511-.018l10.2-3.388a.909.909,0,0,0,.1-1.685l-22.314-10.51a.909.909,0,0,0-.676-.04l-10.525,3.521a.909.909,0,0,0-.4.133l-3.935,1.317-18.538,6.2a.909.909,0,0,0-.1,1.684l22.124,10.494a.914.914,0,0,0,.676.042l6.531-2.17,1.567-.476a.909.909,0,0,0,.553-1.267l-1.845-3.793,6.6-2.453Zm-11.949-13.8,14.161,6.67-21.263-4.293Zm-30.911,10.342,14.418-4.824v1.307a.893.893,0,0,0,.015.152l-.055.019,5.048,12.561Zm20.175-6.718v1.4l-.081-.016-3.858,1.343v-1.44l.162-.054,3.781-1.265c0,.011,0,.022,0,.033m1.818,1.589v-1.349l28.278,5.71-2.558.85-25.736-5.048a.9.9,0,0,0,.016-.163M137,1370.458l-.774-1.589-.711-1.356.594-.221,1.456,2.994Zm1.048-6.9-3.475,1.464-1.048-2.075-.092-1.886,4.615,1.228Z" transform="translate(-76.731 -1329.836)"/>
    <path id="路径_3818" data-name="路径 3818" d="M106.71,1314.4a.881.881,0,0,0-.017-.139c0-.023-.01-.046-.017-.068a.883.883,0,0,0-.047-.125c-.009-.02-.016-.04-.027-.058a.891.891,0,0,0-.1-.146c0-.005-.008-.011-.012-.017a.9.9,0,0,0-.15-.136l-.009-.008c-.012-.009-.027-.013-.039-.021a.848.848,0,0,0-.093-.057L73.619,1297.9a.907.907,0,0,0-.715-.03c2.372-3.628,5.244-9.376,3.268-13.519l2.684-.889a6.669,6.669,0,0,1,4.7.768c1.435.945,2.357,2.625,2.741,5,.024.269.2,3.3-3.5,5.232l-5.155,2.42-.042.014a.909.909,0,0,0-.62.818.889.889,0,0,0,0,.09.909.909,0,0,0,1.188,1l.238-.079a.91.91,0,0,0,.287-.158l4.957-2.307.035-.017c5.123-2.656,4.591-7.223,4.581-7.295-.474-2.96-1.69-5.1-3.615-6.37a8.661,8.661,0,0,0-6.314-1.026l-.056.016-3.3,1.091c-.087-.089-.177-.178-.271-.264a.063.063,0,0,0-.062-.021l-10.339,3.329a.052.052,0,0,0,.01.1,4.459,4.459,0,0,1,.718.146l-.709.235-11.014-4.6a.911.911,0,0,0-.635-.025L7.249,1296.46l-1.126.38a.909.909,0,0,0-.1,1.68l3.834,1.847a.885.885,0,0,0,.1.034.873.873,0,0,0,.123.072l3.458,1.666,3.458,1.666a.878.878,0,0,0,.1.034.932.932,0,0,0,.123.072l12.82,6.175c.128.076.257.149.382.218l.131.069c.1.051.191.1.288.151l.208.1c.067.033.135.065.205.1l.23.1c.058.026.117.051.171.073l.124.049.106.042c.057.022.115.045.175.067l.215.076.174.06.138.043.079.024.172.052.222.061.161.043.906.188.176.028.173.024.168.021c.059.007.118.013.205.022l.126.012.168.012.758.024.83-.038.163-.016.507-.067.032,0,.343-.063.039-.008.271-.062.04-.01.1-.026.037-.009.086-.025.025-.007c.132-.04.211-.068.21-.068h0l14.88-4.979c.072.158.144.316.214.478a.052.052,0,0,0,.064.029l16.593-5.552.011,0a9.845,9.845,0,0,0,.7-.835l2.173-.727.034-.014,30.182,14.57-45.806,15.8L13.04,1309.178l5.176-1.726a.909.909,0,1,0-.575-1.724l-7.273,2.424a.9.9,0,0,0-.206.1c-.013.007-.028.011-.041.019a.909.909,0,0,0-.422.767v6.448a.909.909,0,0,0,.531.827l46.956,21.461.026.009a.9.9,0,0,0,.134.045l.047.011a.9.9,0,0,0,.172.018.915.915,0,0,0,.141-.012l.045-.01a.9.9,0,0,0,.095-.025l.021-.005,48.241-16.98a.909.909,0,0,0,.607-.858v-5.527c0-.015,0-.028-.005-.042m-64.238-6.464a9.53,9.53,0,0,0,.742-5.418c0-.025-.007-.049-.011-.074a7.529,7.529,0,0,0-4.627-5.488l3.452-1.176c3.415.891,7.459,3.207,10.524,8.784ZM39,1299.2l-8.416,2.752a4.436,4.436,0,0,1,3.727-3.558l0,.01.048-.017a3.026,3.026,0,0,1,.326-.02H34.7a1.145,1.145,0,0,0,.123-.006A6.025,6.025,0,0,1,39,1299.2m12.346-8.52a11.224,11.224,0,0,0-2.217.057l-.012,0-13.26,4.589a.052.052,0,0,0,.024.1,14.418,14.418,0,0,1,1.985-.157l-4.056,1.382c-1.6.313-4.771,1.562-5.3,6.541a.909.909,0,0,0,1.186.961l10.757-3.518a6.4,6.4,0,0,1,.956,2.121c.266,2.466-.2,4.312-1.383,5.487a4.891,4.891,0,0,1-1.67,1.063l-.425.143-.031.011a8.459,8.459,0,0,1-6.9-1.111c-.023-.014-.047-.026-.071-.038l-12.7-6.119a.877.877,0,0,0-.1-.037.92.92,0,0,0-.119-.069l-6.915-3.331a.93.93,0,0,0-.1-.038.962.962,0,0,0-.119-.069l-1.6-.769,43.642-14.326,8.684,3.629Zm14.2,9.534-.255.085a12.137,12.137,0,0,0-1.794-2.887.051.051,0,0,1,.024-.081l2.3-.817a.053.053,0,0,1,.07.039,8.087,8.087,0,0,1-.349,3.661m1.8-10.592a.055.055,0,0,1-.035.047l-11.274,3.98a.051.051,0,0,1-.066-.031A4.036,4.036,0,0,0,54.3,1291.6l9.9-3.374a.9.9,0,0,0,.374-.039l2.395-.793a3.792,3.792,0,0,1,.377,2.231m-10.687,45.91L11.518,1314.9v-4.433l45.138,21.187Zm48.241-16.208-46.423,16.34v-3.937l46.423-16.01Z" transform="translate(-5.504 -1281.337)"/>
  </g>
</svg>
