<svg xmlns="http://www.w3.org/2000/svg" width="98.792" height="80.629" viewBox="0 0 98.792 80.629">
  <g id="组_883" data-name="组 883" transform="translate(0 0)">
    <path id="路径_3805" data-name="路径 3805" d="M494.694,870.712a14.154,14.154,0,0,0-4.363.62v-6.8a.849.849,0,0,0-.848-.849h-4.848a.849.849,0,0,0-.848.849v8.4a7.516,7.516,0,0,1-2.85-.81,18.4,18.4,0,0,0-1.877-.743V864.53a.849.849,0,0,0-.848-.849h-4.848a.849.849,0,0,0-.848.849v6.306a14,14,0,0,0-4.312,1.285c-.145.066-.282.128-.415.186V864.53a.849.849,0,0,0-.848-.849h-4.848a.849.849,0,0,0-.848.849V872.3c-.141-.061-.281-.12-.425-.185a13.9,13.9,0,0,0-4.3-1.282V864.53a.849.849,0,0,0-.848-.849h-4.848a.849.849,0,0,0-.848.849v6.842a19.569,19.569,0,0,0-1.886.748,7.438,7.438,0,0,1-2.841.807v-8.4a.849.849,0,0,0-.848-.849h-4.848a.849.849,0,0,0-.848.849v6.8a14.237,14.237,0,0,0-4.363-.623.849.849,0,0,0-.848.849v4.848a.849.849,0,0,0,.848.848,7.551,7.551,0,0,1,3.7.839l.184.081c.156.069.317.14.482.211V884.4a14.149,14.149,0,0,0-4.363-.625.849.849,0,0,0-.848.849h0v4.848a.848.848,0,0,0,.848.848,7.543,7.543,0,0,1,3.7.844l.048.022c.2.087.4.176.616.267v6.015a14.236,14.236,0,0,0-4.364-.623.849.849,0,0,0-.846.848v4.848a.848.848,0,0,0,.848.848,7.53,7.53,0,0,1,3.688.836c.2.092.433.194.675.295v6.014a14.158,14.158,0,0,0-4.363-.624.849.849,0,0,0-.848.848v4.848a.849.849,0,0,0,.848.849,7.47,7.47,0,0,1,3.7.844l.048.022c.2.087.4.176.616.267v7.3a.849.849,0,0,0,.849.848h4.849a.849.849,0,0,0,.848-.848v-6.206a13.454,13.454,0,0,0,4.727-1.042v7.248a.849.849,0,0,0,.848.848h4.848a.849.849,0,0,0,.848-.848v-8.207a9.467,9.467,0,0,1,1.633.619,15.1,15.1,0,0,0,3.094,1.075v6.513a.849.849,0,0,0,.848.848h4.848a.849.849,0,0,0,.848-.848v-6.513a14.911,14.911,0,0,0,3.093-1.076c.121-.059.243-.114.366-.168q-.256-.82-.454-1.658c-.205.086-.408.177-.607.277a13.913,13.913,0,0,1-2.4.883v-3.3c.391-.141.753-.3,1.115-.466a12.068,12.068,0,0,1,1.336-.561c-.064-.577-.106-1.158-.131-1.741a13.764,13.764,0,0,0-1.905.758c-.141.065-.277.121-.415.18v-6.2a15.056,15.056,0,0,0,2.807-.953q.211-1.047.505-2.063c-.313.116-.622.244-.922.391a12.55,12.55,0,0,1-3.378,1.088,15.207,15.207,0,0,1-4.573,0h0a12.708,12.708,0,0,1-3.384-1.091,10.045,10.045,0,0,0-2.327-.806v-3.194a12.345,12.345,0,0,1,3.607,1.121,11.531,11.531,0,0,0,1.738.669l.052.012.011,0a11.068,11.068,0,0,0,5.185,0h0l.051-.012a11.321,11.321,0,0,0,1.745-.674,12.394,12.394,0,0,1,3.533-1.106,25.74,25.74,0,0,1,1.769-3.211v-5.153c.119,0,.232-.009.364-.009a7.2,7.2,0,0,1,2.788.458v.748a25.928,25.928,0,0,1,1.9-1.774c-.1-.045-.2-.088-.294-.136s-.2-.089-.295-.132l-.126-.056-.006,0h0a8.851,8.851,0,0,0-3.964-.8,11.007,11.007,0,0,0-1.3.067,9.215,9.215,0,0,0-3.09.921,13.952,13.952,0,0,1-2.4.883v-3.292c.362-.132.7-.282,1.048-.436l.065-.03a12,12,0,0,1,4.527-1.222c.354-.027.74-.041,1.147-.041a12.872,12.872,0,0,1,3.418.416,13.91,13.91,0,0,1,2.259.85,9.059,9.059,0,0,0,2.13.759,25.671,25.671,0,0,1,3.1-1.628v-6.385a13.846,13.846,0,0,0,3.151-.491l0,5.727q.838-.245,1.7-.433v-5.9c.166-.07.326-.14.482-.209l.188-.083a7.545,7.545,0,0,1,3.692-.838.849.849,0,0,0,.848-.848V871.56a.849.849,0,0,0-.848-.849m-56,45.03a8.88,8.88,0,0,0-3.515-.953v-3.158a11.469,11.469,0,0,1,3.515.7Zm24.241-10.171q.753.073,1.575.073c.549,0,1.075-.026,1.576-.073v18.472h-3.151Zm0-40.192h3.151v7.46a10.122,10.122,0,0,1-3.151,0Zm-11.272,0h3.151v18.405c-.121,0-.238-.006-.364-.006a15.685,15.685,0,0,0-2.788.237Zm-11.271,0h3.15v7.549a7.518,7.518,0,0,1-2.852-.81l-.146-.064-.153-.066Zm-5.213,10.207V872.43a11.532,11.532,0,0,1,4.033.9l.009,0c.222.091.432.184.63.273l.145.064a10.228,10.228,0,0,0,8.806-.01c.37-.164.748-.331,1.163-.489v3.419a12.192,12.192,0,0,1-5.575,1.222,11.908,11.908,0,0,1-4.542-.782c-.339-.132-.653-.271-.95-.4l-.183-.081a9.016,9.016,0,0,0-3.536-.96m14.787,2.853v6a18.313,18.313,0,0,0-1.883.75,7.534,7.534,0,0,1-2.844.8v-6.506a13.358,13.358,0,0,0,4.727-1.049m-4.727,14.112a13.441,13.441,0,0,0,4.727-1.043v6a18.868,18.868,0,0,0-1.854.735l-.045.02a7.515,7.515,0,0,1-2.828.8Zm-1.7-13.065v19.579a7.632,7.632,0,0,1-2.853-.809l-.146-.065-.153-.066V878.994a13.88,13.88,0,0,0,3.151.491m-8.364,9.165V885.5a11.452,11.452,0,0,1,3.515.7v3.415a8.982,8.982,0,0,0-3.515-.956m8.363,35.392h-3.151V905.129a13.791,13.791,0,0,0,3.151.493Zm.843-20.1a11.771,11.771,0,0,1-4.55-.79c-.415-.155-.8-.325-1.125-.474a9.018,9.018,0,0,0-3.531-.96v-3.156a11.532,11.532,0,0,1,4.033.895l.009,0c.222.091.432.184.63.273l.171.076a10.212,10.212,0,0,0,8.771-.021c.372-.165.751-.332,1.168-.49v3.421a12.2,12.2,0,0,1-5.575,1.222m.854,1.675a13.362,13.362,0,0,0,4.727-1.045v6a18.47,18.47,0,0,0-1.883.751,7.55,7.55,0,0,1-2.844.8Zm9.575,18.421h-3.151v-7.13a7.226,7.226,0,0,1,2.788-.453c.131,0,.242.005.364.009Zm6.425-7.406a14.162,14.162,0,0,1-2.4-.881,8.966,8.966,0,0,0-3.074-.921,10.882,10.882,0,0,0-1.315-.069,8.851,8.851,0,0,0-3.96.794l-.011,0-.021.009-.407.184a12.062,12.062,0,0,1-4.812,1.234v-3.156a9.017,9.017,0,0,0,3.539-.96,14.492,14.492,0,0,1,2.258-.852,13.03,13.03,0,0,1,3.416-.412c.4,0,.791.014,1.151.042a12.053,12.053,0,0,1,4.517,1.221c.38.171.738.329,1.12.467Zm-9.577-6.484V890.778a7.26,7.26,0,0,1,2.788-.455c.131,0,.242.005.364.009v19.589c-.121,0-.24-.006-.364-.006a15.7,15.7,0,0,0-2.788.237m6.5-5.909a15.055,15.055,0,0,0,3.071,1.067v6.206c-.141-.061-.284-.124-.436-.194a13.86,13.86,0,0,0-4.291-1.282v-6.422a9.859,9.859,0,0,1,1.656.626m3.071-5.8c-.141-.061-.281-.12-.425-.185a13.861,13.861,0,0,0-4.3-1.283v-6.425a9.856,9.856,0,0,1,1.633.618,15.079,15.079,0,0,0,3.094,1.074Zm0-7.94a14.417,14.417,0,0,1-2.431-.9,9.03,9.03,0,0,0-3.042-.908,10.982,10.982,0,0,0-1.314-.069,8.944,8.944,0,0,0-3.959.8l-.014.006-.02.008-.405.183a12.053,12.053,0,0,1-4.813,1.234V887.7a9.016,9.016,0,0,0,3.539-.96,14.5,14.5,0,0,1,2.257-.851,13.018,13.018,0,0,1,3.416-.412c.407,0,.793.014,1.151.042v0a12.087,12.087,0,0,1,4.522,1.224l.091.04c.339.152.67.3,1.024.425Zm0-5.128c-.112-.048-.219-.092-.336-.145l-.1-.045a13.874,13.874,0,0,0-4.289-1.279V877.48a9.89,9.89,0,0,1,1.656.625,15.053,15.053,0,0,0,3.071,1.069Zm4.848,1.212v12.392a10.115,10.115,0,0,1-3.151,0V879.434q.753.073,1.575.073c.549,0,1.075-.026,1.576-.073Zm4.827,4.563a9.659,9.659,0,0,1,1.6-.6v6.425a13.985,13.985,0,0,0-4.312,1.285c-.146.066-.282.128-.415.185l0-6.2a15.074,15.074,0,0,0,3.13-1.092M466.8,877.64a15.289,15.289,0,0,1-4.572,0,12.68,12.68,0,0,1-3.384-1.09,10.046,10.046,0,0,0-2.327-.806v-3.193a12.334,12.334,0,0,1,3.607,1.123,11.639,11.639,0,0,0,1.738.669l.054.013h.009a11.079,11.079,0,0,0,5.186,0h0l.052-.013a11.252,11.252,0,0,0,1.745-.674,12.4,12.4,0,0,1,3.6-1.115v3.194a10.2,10.2,0,0,0-2.337.809,12.558,12.558,0,0,1-3.378,1.088m5.716,6.262a13.806,13.806,0,0,0-4.307,1.287l-.065.029c-.125.056-.238.1-.356.154v-6.2a15.057,15.057,0,0,0,3.1-1.083,9.664,9.664,0,0,1,1.628-.611Zm4.848.115a15.546,15.546,0,0,0-2.788-.239c-.126,0-.242,0-.364.006V865.379h3.151Zm8.123-18.638h3.149v6.605l-.308.135a7.447,7.447,0,0,1-2.841.807Zm-1.7,20.615a7.593,7.593,0,0,1-2.845-.8,17.611,17.611,0,0,0-1.882-.75v-6a13.142,13.142,0,0,0,4.727,1.045Zm10.058-10.407a9,9,0,0,0-3.532.958l-.188.083c-.3.131-.609.27-.95.4a11.9,11.9,0,0,1-4.54.781,12.083,12.083,0,0,1-5.576-1.22v-3.42c.436.164.824.337,1.185.5a10.221,10.221,0,0,0,8.767,0l.307-.135c.159-.07.324-.145.485-.212l.009,0a11.725,11.725,0,0,1,4.033-.891Z" transform="translate(-433.485 -863.682)"/>
    <path id="路径_3806" data-name="路径 3806" d="M620.72,983.871A5.319,5.319,0,0,0,618,983.3c-.217-.005-.421-.01-.613-.022-.875-.057-1.758-.029-2.612,0-.383.012-.778.024-1.159.028l-.3,0c-2.291.024-4.659.047-6.983.007-1.288-.022-2.343-.062-3.321-.124-.185-.012-.375-.017-.576-.023-1.051-.029-1.812-.089-2.015-.6-.233-.585-.029-.982.715-1.756a25.014,25.014,0,0,0,7.844-8.951.877.877,0,0,0,.116-.225,24.644,24.644,0,0,0,2.359-7.314c.005-.025.009-.05.013-.076a24.861,24.861,0,0,0,.266-2.78h0a.865.865,0,0,0,.012-.32q.009-.34.01-.684a25.051,25.051,0,0,0-.449-4.724.874.874,0,0,0-1.716.33,23.261,23.261,0,0,1,.414,4.107l-11.174-2.545,6.676-10.884a23.531,23.531,0,0,1,2.2,3.649.874.874,0,0,0,1.572-.763,24.858,24.858,0,0,0-16.157-13.226.918.918,0,0,0-.1-.025,24.918,24.918,0,0,0-6.1-.757c-.5,0-1.005.017-1.5.047a.875.875,0,0,0-.679.05,24.715,24.715,0,0,0-3.134.481q-.83.181-1.638.418a24.831,24.831,0,0,0-9.031,4.852,24.943,24.943,0,0,0-6.577,8.618c-.042.091-.086.181-.127.272a.882.882,0,0,0-.09.206,24.659,24.659,0,0,0-1.077,2.992q-.284.978-.487,1.988a24.7,24.7,0,0,0-.381,2.544c0,.029-.006.057-.008.086-.069.753-.106,1.514-.106,2.285,0,.36.01.718.025,1.076.024.563.065,1.123.126,1.679a24.79,24.79,0,0,0,.534,3.049q.193.806.438,1.6a24.626,24.626,0,0,0,2.858,6.083c.091.141.18.283.274.422a.888.888,0,0,0,.724.384.87.87,0,0,0,.489-.15.843.843,0,0,0,.094-.078.871.871,0,0,0,.14-1.135,23.286,23.286,0,0,1-3.159-6.894l4.38.952,1.732,2.63,7.842,11.915a23.048,23.048,0,0,1-6.868-4.157.874.874,0,1,0-1.151,1.314,24.8,24.8,0,0,0,9.811,5.27.885.885,0,0,0,.182.048,24.852,24.852,0,0,0,6.368.83q1.019,0,2.019-.082h.015a24.648,24.648,0,0,0,9.64-2.839,3,3,0,0,0,.206.837c.645,1.621,2.418,1.671,3.591,1.7.185.005.359.01.513.02,1.005.064,2.086.1,3.4.127,2.348.041,4.729.016,7.031-.007l.3,0c.4,0,.8-.017,1.2-.029.813-.025,1.654-.051,2.445,0,.227.015.46.02.685.026a4.012,4.012,0,0,1,1.86.316.708.708,0,0,1,.286.893c-.288.781-1.64.942-2.832,1.084-.389.046-.757.09-1.093.156-.152.03-.338.062-.548.1-1.745.3-4.666.81-5.6,2.48a2.4,2.4,0,0,0-.083,2.141c.786,1.959,3.1,2.234,4.968,2.234.4,0,.785-.013,1.127-.024l.271-.009a.874.874,0,1,0-.053-1.747l-.277.009c-1.464.049-3.915.132-4.414-1.114a.681.681,0,0,1-.012-.639c.525-.942,3.22-1.409,4.37-1.609.224-.039.422-.073.584-.105.272-.053.608-.093.965-.136,1.522-.181,3.606-.43,4.265-2.215a2.457,2.457,0,0,0-1.022-2.994m-16.372-38.579-7.317,11.928-6.764-1.541,9.628-14.351a22.871,22.871,0,0,1,4.453,3.963m-11.136-7.062a22.838,22.838,0,0,1,5.2,2.173l-9.97,14.861-2.819-.642-3.5-.8.141-.2,2.6-3.65,1.163-1.635Zm-8.222-.091.547-.725c.361-.021.724-.033,1.089-.038.1,0,.194,0,.291,0a23.524,23.524,0,0,1,4.459.424l-7.563,10.631-1.38,1.941-2.159,3.035-5.8-1.321.071-.095,2.382-3.159,3.036-4.025,3.047-4.04ZM569.1,945.8a23.232,23.232,0,0,1,1.636-1.785q.312-.307.636-.6.716-.654,1.487-1.247a23.162,23.162,0,0,1,2.434-1.641q.8-.467,1.636-.87a22.911,22.911,0,0,1,3.036-1.205q.979-.31,1.994-.534c.393-.086.789-.165,1.189-.231L581.6,939.73l-1.638,2.172-3.036,4.025-1.636,2.169-1.548,2.052-1.025,1.36-.113.149-1.871-.426-1.636-.373-2.864-.652A23.147,23.147,0,0,1,569.1,945.8m-3.038,6.161,3.038.692,1.636.373,8.149,1.856,3.041.692,28.033,6.386q-.052.811-.159,1.607l-5.44,2.678-.046-.012-17.686-3.821-4.663-1.007-.362-.078-1.636-.353-3.038-.656-1.636-.354-4.557-.984-1.636-.353-3.038-.656-1.636-.354-.412-.089a23.061,23.061,0,0,1,1.489-5.694ZM564.2,964.616c-.112-.614-.195-1.235-.257-1.859-.054-.544-.087-1.092-.1-1.642-.006-.217-.015-.434-.015-.652q0-.6.03-1.184l.568.123,1.636.353,3.038.656,1.636.353,4.557.984,1.636.353,3.038.656,1.846.4,3.178.687,1.636.353,15.211,3.286-7.488,3.686L581.6,968.4l-1.636-.355-3.038-.66-1.634-.355Zm27.629,7.794-7.012,3.452-3.216-5.424v-.252Zm-4.912,11.143a23.114,23.114,0,0,1-5.691-.711l-4.4-6.68-1.538-2.336-3.3-5.016-.546-.83,5.483,1.192,2.171.472.868,1.463,1.636,2.759,5.74,9.682c-.141,0-.283.005-.424.005m1.774-1.155-2.98-5.028,23.7-11.665a22.916,22.916,0,0,1-1.821,5.044Zm1.944.854,14.95-9.217a23.118,23.118,0,0,1-14.95,9.217" transform="translate(-523.113 -913.824)"/>
  </g>
</svg>
