<svg xmlns="http://www.w3.org/2000/svg" width="97.332" height="85.15" viewBox="0 0 97.332 85.15">
  <g id="组_879" data-name="组 879" transform="translate(0 0)">
    <path id="路径_3795" data-name="路径 3795" d="M1023.133,520.031a1.091,1.091,0,1,0-1.091-1.091,1.091,1.091,0,0,0,1.091,1.091" transform="translate(-979.819 -488.826)"/>
    <path id="路径_3796" data-name="路径 3796" d="M1040.235,520.031a1.091,1.091,0,1,0-1.091-1.091,1.091,1.091,0,0,0,1.091,1.091" transform="translate(-991.739 -488.826)"/>
    <path id="路径_3797" data-name="路径 3797" d="M1057.982,520.031a1.091,1.091,0,1,0-1.091-1.091,1.091,1.091,0,0,0,1.091,1.091" transform="translate(-1004.108 -488.826)"/>
    <path id="路径_3798" data-name="路径 3798" d="M977.778,427.163H912.521V424.19a2.12,2.12,0,0,0-2.118-2.118H908a2.12,2.12,0,0,0-2.118,2.118v2.973H904.72V424.19a2.121,2.121,0,0,0-2.118-2.118h-2.4a2.121,2.121,0,0,0-2.118,2.118v2.973h-1.162V424.19a2.12,2.12,0,0,0-2.118-2.118h-2.4a2.12,2.12,0,0,0-2.118,2.118v2.973h-5.318a2.261,2.261,0,0,0-2.258,2.258v75.587a2.217,2.217,0,0,0,2.215,2.214h92.859a2.261,2.261,0,0,0,2.258-2.258V429.421a2.261,2.261,0,0,0-2.258-2.258m-69.714-2.909h2.276v7.818h-2.276v-7.818Zm-7.8,0h2.277v7.818h-2.277v-7.818Zm-7.8,0h2.276v7.818h-2.276v-7.818Zm1.255,65.813a.13.13,0,0,1-.126.126h-8.427a.129.129,0,0,1-.126-.126v-8h8.679Zm0-20.783h-8.679v-8.728h8.679Zm-8.679,2.181h8.679v8.424h-8.679Zm8.679-13.09h-8.679V447.652a.13.13,0,0,1,.126-.126h8.427a.13.13,0,0,1,.126.126Zm-8.754,46.666a.076.076,0,0,1-.076-.076v-12.59h18.87a2.647,2.647,0,0,0,2.645-2.644v-7.658h7.483a.037.037,0,0,1,.033.033v22.9a.037.037,0,0,1-.033.033Zm20.348-52.727a1.94,1.94,0,1,1,1.939-1.939,1.942,1.942,0,0,1-1.939,1.939m18.665,52.727H916.1c0-.011,0-.022,0-.033V482.1a2.217,2.217,0,0,0-2.214-2.214H906.4V454.344a4.121,4.121,0,1,0-2.182,0v35.385a.469.469,0,0,1-.463.463h-7.864c0-.042.006-.084.006-.126V447.652a2.31,2.31,0,0,0-2.308-2.308h-8.427a2.279,2.279,0,0,0-.278.018V429.421a.077.077,0,0,1,.076-.076h5.318v2.791a2.12,2.12,0,0,0,2.118,2.118h2.4a2.12,2.12,0,0,0,2.118-2.118v-2.791h1.162v2.791a2.12,2.12,0,0,0,2.118,2.118h2.4a2.12,2.12,0,0,0,2.118-2.118v-2.791h1.162v2.791A2.12,2.12,0,0,0,908,434.253h2.4a2.12,2.12,0,0,0,2.118-2.118v-2.791h65.256a.077.077,0,0,1,.076.076v25.924h-5.091V445.223h-.015v-.03a1.064,1.064,0,0,0-1.062-1.061h-10.21a1.051,1.051,0,0,0-.667.243,1.265,1.265,0,0,0-.405.341l-14.971,19.372h-4.278v-2.168a1.729,1.729,0,0,0-1.727-1.727h-1.76v-4.152a.9.9,0,0,0-.893-.893h-.4a.9.9,0,0,0-.893.893v4.152h-3.2v-3a.83.83,0,0,0-.828-.828h-.527a.83.83,0,0,0-.828.828v3H927.2v-4.523a.943.943,0,0,0-.94-.94h-.392a.943.943,0,0,0-.94.94v4.523h-1.678a1.729,1.729,0,0,0-1.727,1.727v2.017h-4.187a.9.9,0,0,0-.893.893v.4a.9.9,0,0,0,.893.893h4.188v3.2h-3.035a.83.83,0,0,0-.828.828v.527a.83.83,0,0,0,.828.828h3.035v2.91h-4.559a.943.943,0,0,0-.94.94v.392a.943.943,0,0,0,.94.94h4.559v2.03a1.729,1.729,0,0,0,1.727,1.727h1.678v3.836a.9.9,0,0,0,.893.893h.4a.9.9,0,0,0,.893-.893v-3.836h3.2v2.683a.83.83,0,0,0,.828.828h.527a.83.83,0,0,0,.828-.828v-2.683h2.91v4.207a.943.943,0,0,0,.94.94h.392a.943.943,0,0,0,.94-.94v-4.207h1.76a1.729,1.729,0,0,0,1.727-1.727v-1.878h4.258a.9.9,0,0,0,.893-.893v-.4a.9.9,0,0,0-.893-.893h-4.258v-3.2h3.105a.83.83,0,0,0,.828-.828V470.1a.83.83,0,0,0-.828-.828h-3.105v-2.91h4.629a.908.908,0,0,0,.135-.014,1.227,1.227,0,0,0,1.085-.481l15.111-19.553h8.466v43.878h-8.514V475.465a4.121,4.121,0,1,0-2.181,0v14.727H942.724a1.66,1.66,0,0,0-1.4.875,2.178,2.178,0,0,0-.444,1.317v12.656ZM972.763,488.2v-9.761h5.091v9.94h-5.091Zm0-19.458h5.091v7.515h-5.091Zm0-11.212h5.091v9.031h-5.091Zm-49.06,4.849h15.271v15.88H923.7Zm37.941,10.939h-1.338a1.939,1.939,0,1,1,1.338,0m16.133,31.727H943.037V492.374h27.408a2.189,2.189,0,0,0,1.894-1.306l-.011-.015a2.766,2.766,0,0,0,.249-.5h5.276v14.409a.076.076,0,0,1-.076.076" transform="translate(-882.704 -422.072)"/>
  </g>
</svg>
