<svg xmlns="http://www.w3.org/2000/svg" width="109.09" height="92.883" viewBox="0 0 109.09 92.883">
  <g id="组_878" data-name="组 878" transform="translate(0 0)">
    <path id="路径_3760" data-name="路径 3760" d="M1027.563,126.429h-16.278a1.133,1.133,0,1,1,0-2.267h16.278a1.133,1.133,0,0,1,0,2.267" transform="translate(-965.31 -86.538)"/>
    <path id="路径_3761" data-name="路径 3761" d="M946.095,163.2l-25.862,25.862a1.133,1.133,0,0,1-1.6-1.6L944.492,161.6a1.133,1.133,0,1,1,1.6,1.6" transform="translate(-901.291 -112.4)"/>
    <path id="路径_3762" data-name="路径 3762" d="M1016.261,150.994l-.664.664a1.133,1.133,0,0,1-1.6-1.6l.664-.664a1.133,1.133,0,1,1,1.6,1.6" transform="translate(-967.757 -103.891)"/>
    <path id="路径_3763" data-name="路径 3763" d="M934.056,62.569l-55.445,55.445a8.3,8.3,0,0,1-11.74-11.741l55.445-55.444.025-.024-1.422-1.423c-.06-.06-.118-.122-.176-.185l-.029.028-55.445,55.444a10.568,10.568,0,1,0,14.946,14.946l55.445-55.444.024-.025-1.6-1.6-.024.025" transform="translate(-862.173 -34.29)"/>
    <path id="路径_3764" data-name="路径 3764" d="M1076.256,31.178l-15.49-15.49a6.388,6.388,0,0,0-9.211,8.85c.058.062.116.124.176.185l1.422,1.422,2.787,2.787.007-.007c.015.017.026.035.041.051a1.133,1.133,0,0,0,1.6-1.6c-.016-.016-.034-.027-.051-.042l0,0-2.559-2.559-1.65-1.65,0,0a4.122,4.122,0,0,1,5.832-5.827l6.824,6.824c.165.145.327.295.484.452s.305.318.45.482l7.732,7.732a4.122,4.122,0,1,1-5.83,5.83l-.905-.905-1.653-1.653-1.961-1.961h0c-.009-.01-.016-.022-.025-.032a1.133,1.133,0,0,0-1.6,1.6c.01.01.021.016.031.025l-.005.005,2.191,2.191,1.6,1.6.726.725a6.389,6.389,0,0,0,9.035-9.035" transform="translate(-992.986 -9.631)"/>
    <path id="路径_3765" data-name="路径 3765" d="M1150.238,16.638h0a1.552,1.552,0,0,1-1.552-1.552v-.07a1.552,1.552,0,0,1,3.1,0v.07a1.552,1.552,0,0,1-1.552,1.552" transform="translate(-1061.865 -9.385)"/>
    <path id="路径_3766" data-name="路径 3766" d="M1129.295,3.174h0a1.552,1.552,0,0,1-1.552-1.552v-.07a1.552,1.552,0,0,1,3.1,0v.07a1.552,1.552,0,0,1-1.552,1.552" transform="translate(-1047.268 -0.001)"/>
    <path id="路径_3767" data-name="路径 3767" d="M1129.295,29.353h0a1.552,1.552,0,0,1-1.552-1.552v-.07a1.552,1.552,0,0,1,3.1,0v.07a1.552,1.552,0,0,1-1.552,1.552" transform="translate(-1047.268 -18.247)"/>
    <path id="路径_3768" data-name="路径 3768" d="M1020.941,239.222h-.023a5.632,5.632,0,0,1,.021-11.263h.022a5.632,5.632,0,0,1-.021,11.263m0-9a3.365,3.365,0,0,0-.013,6.73h.013a3.365,3.365,0,0,0,.013-6.73Z" transform="translate(-968.905 -158.882)"/>
    <path id="路径_3769" data-name="路径 3769" d="M1094.943,280.613h-.022a5.632,5.632,0,0,1,.021-11.263h.023a5.632,5.632,0,0,1-.022,11.263m0-9a3.365,3.365,0,0,0-.013,6.73h.013a3.365,3.365,0,0,0,.013-6.73Z" transform="translate(-1020.482 -187.73)"/>
    <path id="路径_3770" data-name="路径 3770" d="M1126.756,185.756h-16.192l-8.1-14.023,8.1-14.023h16.192l8.1,14.023Zm-14.883-2.267h13.575l6.787-11.756-6.787-11.756h-13.575l-6.788,11.756Z" transform="translate(-1029.652 -109.92)"/>
    <path id="路径_3771" data-name="路径 3771" d="M1181.116,144.153l-2.14,4.064a.923.923,0,1,0,1.633.86l2.14-4.064a.923.923,0,0,0-1.633-.86" transform="translate(-1082.902 -100.128)"/>
    <path id="路径_3772" data-name="路径 3772" d="M1182.207,250.259l-3.445-5.966a.864.864,0,0,0-1.181-.317l-.1.058a.864.864,0,0,0-.316,1.181l3.445,5.966a.864.864,0,0,0,1.181.316l.1-.058a.865.865,0,0,0,.316-1.181" transform="translate(-1081.633 -169.964)"/>
    <path id="路径_3773" data-name="路径 3773" d="M1125.847,174.73l-4.786,8.289a.923.923,0,1,0,1.6.923l4.786-8.289a.923.923,0,1,0-1.6-.923" transform="translate(-1042.525 -121.461)"/>
    <path id="路径_3774" data-name="路径 3774" d="M1168.107,175.652l4.786,8.289a.923.923,0,1,0,1.6-.923l-4.786-8.289a.923.923,0,1,0-1.6.923" transform="translate(-1075.315 -121.461)"/>
    <path id="路径_3775" data-name="路径 3775" d="M1094.807,218.286l4.786,8.289a.923.923,0,0,0,1.6-.923l-4.786-8.289a.923.923,0,1,0-1.6.923" transform="translate(-1024.226 -151.175)"/>
    <path id="路径_3776" data-name="路径 3776" d="M1147.743,228.6h-9.572a.923.923,0,1,0,0,1.845h9.572a.923.923,0,1,0,0-1.845" transform="translate(-1053.894 -159.327)"/>
    <path id="路径_3777" data-name="路径 3777" d="M1188.723,117.1a5.631,5.631,0,1,1,5.631-5.631,5.638,5.638,0,0,1-5.631,5.631m0-9a3.365,3.365,0,1,0,3.365,3.365,3.369,3.369,0,0,0-3.365-3.365" transform="translate(-1085.844 -73.767)"/>
    <path id="路径_3778" data-name="路径 3778" d="M1190.635,280.37a5.632,5.632,0,1,1,5.632-5.632,5.638,5.638,0,0,1-5.632,5.632m0-9a3.365,3.365,0,1,0,3.365,3.365,3.369,3.369,0,0,0-3.365-3.365" transform="translate(-1087.177 -187.561)"/>
    <path id="路径_3779" data-name="路径 3779" d="M1054.417,272.1l-.016,0h-5.988l-2.976-5.155,0,0a1.13,1.13,0,1,0-1.97,1.1l-.006,0,3.647,6.316h7.334v0a1.132,1.132,0,0,0-.021-2.264" transform="translate(-988.404 -185.613)"/>
    <path id="路径_3780" data-name="路径 3780" d="M1071.658,214.366l-8.1-14.023H1047.37l-3.529,6.113,0,0a1.131,1.131,0,1,0,1.984,1.074l.005,0,2.844-4.925h13.575l6.787,11.757-2.875,4.98c-.005.007-.008.015-.013.023l-.049.085h0a1.121,1.121,0,0,0-.135.527,1.132,1.132,0,0,0,2.079.622l.005,0Z" transform="translate(-988.669 -139.634)"/>
  </g>
</svg>
