<svg xmlns="http://www.w3.org/2000/svg" width="80.619" height="84.162" viewBox="0 0 80.619 84.162">
  <g id="组_884" data-name="组 884" transform="translate(0 0)">
    <path id="路径_3807" data-name="路径 3807" d="M991.853,1049.48l-.014.014a1.237,1.237,0,1,0,1.745,1.755l.014-.014a1.237,1.237,0,0,0-1.745-1.755" transform="translate(-964.349 -983.677)"/>
    <path id="路径_3808" data-name="路径 3808" d="M1025.183,1036.411l-.014.014a1.237,1.237,0,1,0,1.749,1.75l.014-.014a1.237,1.237,0,0,0-1.75-1.75" transform="translate(-987.58 -974.567)"/>
    <path id="路径_3809" data-name="路径 3809" d="M1044.246,1042.731a6.248,6.248,0,1,0,6.25,6.246,6.252,6.252,0,0,0-6.25-6.246m0,10.021a3.773,3.773,0,1,1,3.775-3.776,3.777,3.777,0,0,1-3.775,3.776" transform="translate(-996.777 -979.224)"/>
    <path id="路径_3810" data-name="路径 3810" d="M955.561,1058.472a4.284,4.284,0,1,0,4.286,4.282,4.289,4.289,0,0,0-4.286-4.282m0,6.093a1.809,1.809,0,1,1,1.812-1.812,1.814,1.814,0,0,1-1.812,1.812" transform="translate(-936.331 -990.195)"/>
    <path id="路径_3811" data-name="路径 3811" d="M1123.943,1040.745a1.232,1.232,0,0,0,.875-.363l.014-.014a1.237,1.237,0,0,0-1.75-1.75l-.014.014a1.237,1.237,0,0,0,.875,2.112" transform="translate(-1055.814 -976.105)"/>
    <path id="路径_3812" data-name="路径 3812" d="M1132.647,1071.932a1.234,1.234,0,0,0,.872-.36l.014-.014a1.237,1.237,0,0,0-1.745-1.755l-.014.014a1.237,1.237,0,0,0,.872,2.115" transform="translate(-1061.881 -997.842)"/>
    <path id="路径_3813" data-name="路径 3813" d="M978.056,839.132H961.1a4.667,4.667,0,0,0-4.523,4.789,4.732,4.732,0,0,0,3.653,4.7l.121.025V890.1L947.112,872.67a19.884,19.884,0,0,1-3.426-10.457l-.049-19.493.137-.014a4.787,4.787,0,0,0-.472-9.55H925.041a4.787,4.787,0,0,0-.473,9.551l.137.014v19.492a19.939,19.939,0,0,1-3.47,10.457l-4.134,5.444a1.066,1.066,0,0,0-.113.185l-3.372,4.508-7.426,9.669a21.863,21.863,0,0,0-3.929,9.394,16.549,16.549,0,0,0,1.054,9.933c1.241,2.516,3.921,5.516,9.638,5.516H955.39a10.806,10.806,0,0,0,7.517-2.651l.106-.1.1.1a9.221,9.221,0,0,0,15.689-6.579V868.615h.018V860.13h-.018V848.642l.121-.025a4.733,4.733,0,0,0,3.653-4.7,4.667,4.667,0,0,0-4.523-4.79M915,884.564l.014.01,5.445-7.279-.009-.007,2.51-3.306a22.384,22.384,0,0,0,3.855-11.311l.005-.146h4.347a1.086,1.086,0,0,0,0-2.171h-4.339l.011-4.427h4.328a1.086,1.086,0,0,0,0-2.172H926.85l.011-4.427h4.311a1.086,1.086,0,1,0,0-2.172h-4.306l.011-4.427h3.2v0a1.083,1.083,0,0,0,0-2.166v0h-5.039a2.616,2.616,0,1,1,0-5.231H943.3a2.616,2.616,0,1,1,0,5.231h-5.268v0a1.085,1.085,0,0,0,0,2.17h3.433v19.487a22.051,22.051,0,0,0,3.917,11.766l9.02,11.878-.458-.147a17.14,17.14,0,0,0-8.786-.5,35.044,35.044,0,0,0-9.33,3.656l-.082.043-.076-.054c-6.313-4.535-15.762-3.725-22.5-1.454l-.472.159Zm-9.712,14.28a18.049,18.049,0,0,1,2.621-5.047l2.043-2.64c5.345-3.076,16.443-5.214,23.375-1.226l.237.136-.519.277c-7.166,3.839-15.289,8.19-27.607,8.7l-.222.009Zm56.3,14.085a8.469,8.469,0,0,1-6.2,2.218H912.953c-3.694,0-6.282-1.448-7.691-4.305a14.778,14.778,0,0,1-.674-9.48l.025-.116.118,0c13.274-.376,22.183-5.148,29.341-8.983,8.32-4.456,14.33-7.676,23.085-2.751l.046.04,3.146,4.143v14.4a9.205,9.205,0,0,0,1.264,4.653l.059.1Zm15.043-4.838a7.056,7.056,0,1,1-14.111,0v-32.1l.085-.042a6.9,6.9,0,0,1,6.366.318,8.472,8.472,0,0,0,4.671,1.312h0a9.249,9.249,0,0,0,2.789-.42l.2-.063Zm1.422-61.556h-4.568v.009a1.08,1.08,0,0,0,0,2.158v.005h3.146v12.274a1.1,1.1,0,0,0,.022.22v5.27a1.1,1.1,0,0,0-.022.22v8.049l-.085.042a6.9,6.9,0,0,1-6.368-.319,9.019,9.019,0,0,0-7.461-.89l-.2.062v-5.128h4.292a1.086,1.086,0,0,0,0-2.171h-4.292V861.9h4.292a1.086,1.086,0,0,0,0-2.172h-4.292V855.3h4.292a1.086,1.086,0,0,0,0-2.172h-4.292v-4.426h3.012v0c.014,0,.027,0,.041,0a1.085,1.085,0,1,0,0-2.17c-.014,0-.027,0-.041,0v-.007H961.1a2.63,2.63,0,0,1,0-5.231h16.956a2.63,2.63,0,0,1,0,5.231" transform="translate(-901.96 -833.156)"/>
  </g>
</svg>
