<svg xmlns="http://www.w3.org/2000/svg" width="68.775" height="68.775" viewBox="0 0 68.775 68.775">
  <g id="组_882" data-name="组 882" transform="translate(0)">
    <path id="路径_3799" data-name="路径 3799" d="M81.837,883.186H81.82a4.6,4.6,0,0,0-4.511,4.58v6.544H70.555a1.012,1.012,0,1,0,0,2.025H77.31v5.322H70.555a1.012,1.012,0,1,0,0,2.025H77.31V909H70.555a1.012,1.012,0,1,0,0,2.025H77.31v5.322H70.555a1.012,1.012,0,1,0,0,2.025H77.31V923.7H70.555a1.012,1.012,0,1,0,0,2.024H77.31v4.371a1.012,1.012,0,1,0,2.025,0V887.766a2.567,2.567,0,0,1,2.517-2.556,1.012,1.012,0,0,0-.015-2.023" transform="translate(-69.543 -875.629)"/>
    <path id="路径_3800" data-name="路径 3800" d="M144.929,1047.1H100.362A2.549,2.549,0,0,1,98,1045.513a1.012,1.012,0,0,0-1.874.767,4.565,4.565,0,0,0,4.241,2.846H106.7v6.964a1.012,1.012,0,1,0,2.025,0v-6.964h5.322v6.964a1.012,1.012,0,1,0,2.025,0v-6.964h5.322v6.964a1.012,1.012,0,1,0,2.025,0v-6.964h5.322v6.964a1.012,1.012,0,1,0,2.025,0v-6.964h5.322v6.964a1.012,1.012,0,1,0,2.025,0v-6.964h6.821a1.012,1.012,0,1,0,0-2.024" transform="translate(-88.015 -988.327)"/>
    <path id="路径_3801" data-name="路径 3801" d="M157.733,915.047H130.274a3.239,3.239,0,0,0-3.235,3.235v27.46a3.238,3.238,0,0,0,3.235,3.235h27.459a3.238,3.238,0,0,0,3.235-3.235v-27.46a3.238,3.238,0,0,0-3.235-3.235m-28.669,3.235a1.211,1.211,0,0,1,1.211-1.211h20.939v10.573a4.808,4.808,0,0,0-3.671,3.671h-7.46v-5.191a4.161,4.161,0,1,0-4.884-4.885h-6.134Zm23.162,11.278a2.766,2.766,0,1,1-2.767,2.767,2.769,2.769,0,0,1,2.767-2.767m-12.945-5.383a2.136,2.136,0,1,1,2.137-2.137,2.14,2.14,0,0,1-2.137,2.137m-4.372,16.545a1.926,1.926,0,1,1,2.87-1.679,1.925,1.925,0,0,1-2.87,1.679m8.187,6.23H136.3v-3.984a3.95,3.95,0,1,0-2.025-.3v4.284h-4.006a1.212,1.212,0,0,1-1.211-1.211V923.264h6.24a4.239,4.239,0,0,0,2.755,2.755v6.309a1.013,1.013,0,0,0,1.012,1.012H143.1Zm15.847-1.211a1.212,1.212,0,0,1-1.211,1.211H145.121v-4.378h13.823Zm0-5.191H145.121V933.34h2.422a4.791,4.791,0,1,0,5.7-5.7h0V917.071h4.495a1.212,1.212,0,0,1,1.211,1.211Z" transform="translate(-109.616 -897.835)"/>
    <path id="路径_3802" data-name="路径 3802" d="M163.507,886.3a1.012,1.012,0,1,0,0-2.025h-6.754v-5.322h6.754a1.012,1.012,0,1,0,0-2.025h-6.754v-6.545a4.586,4.586,0,0,0-4.581-4.581h-6.334v-6.544a1.012,1.012,0,0,0-2.025,0V865.8H138.49v-6.544a1.012,1.012,0,0,0-2.025,0V865.8h-5.322v-6.544a1.012,1.012,0,0,0-2.025,0V865.8H123.8v-6.544a1.012,1.012,0,0,0-2.025,0V865.8H116.45v-6.544a1.012,1.012,0,0,0-2.025,0V865.8h-6.278a1.012,1.012,0,1,0,0,2.024h44.023a2.559,2.559,0,0,1,2.556,2.556v44.081a2.532,2.532,0,0,1-.792,1.851,1.012,1.012,0,0,0,1.4,1.466,4.545,4.545,0,0,0,1.42-3.316v-6.124h6.754a1.012,1.012,0,1,0,0-2.025h-6.754v-5.322h6.754a1.012,1.012,0,1,0,0-2.024h-6.754v-5.322h6.754a1.012,1.012,0,1,0,0-2.024h-6.754V886.3Z" transform="translate(-95.744 -858.246)"/>
    <path id="路径_3803" data-name="路径 3803" d="M260.447,1049.415s-1.361,2.336-3.607,2.271l-.034-2.024a2.209,2.209,0,0,0,1.788-1.105Z" transform="translate(-200.06 -990.887)"/>
    <path id="路径_3804" data-name="路径 3804" d="M95.666,1040.636a4.045,4.045,0,0,1-.393-2.1l-.1-2.232H97.2v1.62s-.138,1.907.938,2.623Z" transform="translate(-87.406 -982.348)"/>
  </g>
</svg>
