<svg id="组_859" data-name="组 859" xmlns="http://www.w3.org/2000/svg" xmlns:xlink="http://www.w3.org/1999/xlink" width="134.324" height="126.319" viewBox="0 0 134.324 126.319">
  <defs>
    <clipPath id="clip-path">
      <rect id="矩形_687" data-name="矩形 687" width="134.324" height="126.319" fill="none"/>
    </clipPath>
  </defs>
  <g id="组_858" data-name="组 858" clip-path="url(#clip-path)">
    <path id="路径_3734" data-name="路径 3734" d="M16.628,90.869a93.249,93.249,0,0,0,9.224-4.6A131.187,131.187,0,0,0,45.946,72.643a104.421,104.421,0,0,0,10.73-10.177,72.674,72.674,0,0,0,6.871-8.582,80.445,80.445,0,0,0,4.582-7.842,45.134,45.134,0,0,0,4.46-11.967,14.876,14.876,0,0,0,.052-6.573,4.35,4.35,0,0,0-1.618-2.488A4.712,4.712,0,0,0,67,24.742,17.837,17.837,0,0,0,60.344,29.1a54.925,54.925,0,0,0-8.676,10.817A87.355,87.355,0,0,0,42.253,61.2a122.419,122.419,0,0,0-3.522,15.345,43.68,43.68,0,0,0-.759,5.965c-.036,1.412-.083,2.824-.108,4.237a8.3,8.3,0,0,0,2.78,6.792,1.3,1.3,0,0,0,1.8.029c.437-.483-.18-1.268-.446-1.7a10.83,10.83,0,0,0-2.382-2.64,9.438,9.438,0,0,0-5.6-2.191c-.323-.014-.878.11-1.031.44s.13.5.438.509a8.592,8.592,0,0,1,5.755,2.808,11.37,11.37,0,0,1,1.194,1.447c.066.1.131.192.192.292a5.653,5.653,0,0,1,.339.634c.142.319.019.348.248.111l.52-.274c.938-.3.657.172.432-.091a1.721,1.721,0,0,0-.2-.163c-.137-.118-.263-.248-.4-.372a5.355,5.355,0,0,1-1.385-2.023,10.41,10.41,0,0,1-.593-2.378c-.041-.293-.072-.587-.091-.882,0-.071-.017-.494-.017-.3a50.488,50.488,0,0,1,.335-6.9,116.965,116.965,0,0,1,6.759-26.683A76.33,76.33,0,0,1,55.361,36.67a47.671,47.671,0,0,1,7.169-8.1q.548-.482,1.118-.936c.113-.09.2-.155.1-.076l.209-.159c.1-.077.207-.154.312-.229,1.225-.87,2.86-1.956,4.43-1.785,1.814.2,2.455,2.281,2.62,3.82a12.409,12.409,0,0,1,.055,2.03,23.4,23.4,0,0,1-.94,5.48A61.96,61.96,0,0,1,62,53.935a70.216,70.216,0,0,1-6.315,7.917,102.68,102.68,0,0,1-9.678,9.367A127.41,127.41,0,0,1,27.289,84.37a108.958,108.958,0,0,1-10.776,5.562c-.174.076-.347.153-.523.226-.239.1-.621.385-.407.672s.789.146,1.044.04" transform="translate(-7.125 -11.213)" fill="#070203"/>
    <path id="路径_3735" data-name="路径 3735" d="M34.557,161.074a7.059,7.059,0,0,1,.591-.434c.149-.1-.056.035.044-.029.056-.037.113-.074.169-.109.147-.092.294-.182.443-.27q.526-.309,1.072-.584a26.686,26.686,0,0,1,7.32-2.322,43.364,43.364,0,0,1,13-.12c2.083.271,4.154.675,6.227,1.025l16.117,2.722c2.9.49,5.792,1.052,8.712,1.429a55,55,0,0,0,9.033.56c2.2-.081,5.171-.256,6.807-1.95a2.509,2.509,0,0,0,.609-1.021c.141-.472-1.416-.259-1.559.224a2.224,2.224,0,0,1-1.574,1.412,12.394,12.394,0,0,1-3.275.519,50.432,50.432,0,0,1-8.874-.5c-2.925-.371-5.818-.933-8.724-1.423l-16.01-2.7c-1.892-.32-3.783-.684-5.681-.959a47.637,47.637,0,0,0-13.4-.167,31.833,31.833,0,0,0-8.471,2.325,16.954,16.954,0,0,0-3.67,2.074c-.049.039-.1.076-.147.116-.257.218-.164.4.129.481a1.47,1.47,0,0,0,1.109-.3" transform="translate(-15.227 -71.606)" fill="#070203"/>
    <path id="路径_3736" data-name="路径 3736" d="M100.063,113.879a61.573,61.573,0,0,1-34.518,11.772A62.664,62.664,0,0,1,11.4,96.7,62.666,62.666,0,0,1,8.414,34.513,62.511,62.511,0,0,1,29.531,10.8,61.343,61.343,0,0,1,60.766.7a62.652,62.652,0,0,1,54.456,27.987,62.636,62.636,0,0,1,9.033,47.853c-.077.359,1.462.125,1.548-.272A62.908,62.908,0,0,0,98.973,10.473,63.681,63.681,0,0,0,68.545.157,65.153,65.153,0,0,0,35.59,6.6a62.968,62.968,0,0,0-7.858,108.9,63.7,63.7,0,0,0,30.226,10.607,65.106,65.106,0,0,0,34.615-6.851,64.216,64.216,0,0,0,8.693-5.319c.255-.186.188-.305-.095-.354a1.789,1.789,0,0,0-1.108.3" transform="translate(0 0)" fill="#070203"/>
    <path id="路径_3737" data-name="路径 3737" d="M194.242,168.5l-.36.027-.243-3.329-.637.466-.028-.377.492-.383.51-.037Z" transform="translate(-88.59 -75.685)" fill="#1a1311"/>
    <path id="路径_3738" data-name="路径 3738" d="M194.113,168.288l-.36.027.142.07-.213-2.907-.031-.421c-.009-.114-.21-.065-.26-.028l-.637.466.26.028c-.01-.126-.019-.252-.028-.377l-.054.111.2-.158a1.432,1.432,0,0,0,.27-.21c.035-.048-.163.017-.062.026a1.022,1.022,0,0,0,.162-.011l.309-.023-.142-.071q.116,1.592.233,3.184l.032.45c.01.139.325.065.314-.084q-.117-1.592-.233-3.184c-.011-.15-.022-.3-.033-.45,0-.059-.1-.074-.142-.071-.157.011-.315.019-.472.035a.672.672,0,0,0-.346.194c-.092.071-.3.174-.349.288a1.148,1.148,0,0,0,.021.436c.009.114.209.065.26.028l.637-.466-.26-.028.213,2.907.031.422c0,.059.1.074.142.07l.36-.027c.175-.012.243-.241.029-.225" transform="translate(-88.447 -75.589)" fill="#070203"/>
    <path id="路径_3739" data-name="路径 3739" d="M198.039,166.485v.09a.349.349,0,0,1-.2.174,1.043,1.043,0,0,1-.355.066.928.928,0,0,1-.5-.118.883.883,0,0,1-.344-.365,1.257,1.257,0,0,1-.135-.556v0a1.4,1.4,0,0,1,.1-.607.841.841,0,0,1,.336-.392,1.1,1.1,0,0,1,.546-.147,1.078,1.078,0,0,1,.552.117.851.851,0,0,1,.358.375,1.408,1.408,0,0,1,.137.6v0a1.892,1.892,0,0,1-.038.418,2.54,2.54,0,0,1-.129.444l-.028.067c-.009.023-.019.045-.03.068l-.73,1.583-.4.012Zm-.022-.222a.812.812,0,0,0,.154-.557v0a.826.826,0,0,0-.189-.551.6.6,0,0,0-.488-.183.609.609,0,0,0-.479.213.83.83,0,0,0-.155.564v0a.8.8,0,0,0,.188.544.7.7,0,0,0,.968-.03" transform="translate(-90.209 -75.577)" fill="#1a1311"/>
    <path id="路径_3740" data-name="路径 3740" d="M197.74,166.39c0,.323-.659.188-.828.078a1,1,0,0,1-.392-.841.851.851,0,0,1,1.346-.837c.55.391.392,1.272.159,1.791-.109.242-.223.483-.334.725l-.4.875.162-.1-.4.012.139.145.863-1.836c.078-.167-.238-.181-.3-.044l-.863,1.836c-.044.094.063.147.14.145l.4-.012a.19.19,0,0,0,.163-.1l.486-1.055a4.039,4.039,0,0,0,.474-1.385,1.441,1.441,0,0,0-.268-1.021,1.171,1.171,0,0,0-1.048-.354,1.111,1.111,0,0,0-.885.556,1.526,1.526,0,0,0-.09,1.1,1.04,1.04,0,0,0,.91.762c.311.028.893-.048.891-.458,0-.173-.319-.133-.319.019" transform="translate(-90.069 -75.472)" fill="#070203"/>
    <path id="路径_3741" data-name="路径 3741" d="M198.319,166.5a1.069,1.069,0,0,0,.114-1,.706.706,0,0,0-.307-.369.879.879,0,0,0-.536-.092.82.82,0,0,0-.5.231.806.806,0,0,0-.211.448.952.952,0,0,0,.3.929.9.9,0,0,0,1.136-.146.1.1,0,0,0-.044-.164.2.2,0,0,0-.222.059.505.505,0,0,1-.614.072.715.715,0,0,1-.249-.663.5.5,0,0,1,.362-.519.489.489,0,0,1,.559.278.88.88,0,0,1-.058.831.1.1,0,0,0,.044.164.2.2,0,0,0,.222-.059" transform="translate(-90.378 -75.761)" fill="#070203"/>
    <path id="路径_3742" data-name="路径 3742" d="M203.028,166.492l0,.09a.345.345,0,0,1-.21.163,1.023,1.023,0,0,1-.358.048.933.933,0,0,1-.5-.144.889.889,0,0,1-.325-.382,1.277,1.277,0,0,1-.105-.563v0a1.4,1.4,0,0,1,.133-.6.836.836,0,0,1,.356-.373,1.092,1.092,0,0,1,.553-.118,1.069,1.069,0,0,1,.546.145.854.854,0,0,1,.338.394,1.415,1.415,0,0,1,.105.611v0a1.938,1.938,0,0,1-.059.416,2.62,2.62,0,0,1-.153.437c-.011.022-.021.044-.031.066s-.022.044-.034.065l-.811,1.543-.4-.009Zm-.01-.223a.813.813,0,0,0,.183-.547v0a.818.818,0,0,0-.16-.56.69.69,0,0,0-.967-.022.829.829,0,0,0-.184.555v0a.8.8,0,0,0,.159.554.7.7,0,0,0,.968.02" transform="translate(-92.517 -75.568)" fill="#1a1311"/>
    <path id="路径_3743" data-name="路径 3743" d="M202.732,166.419c-.018.34-.669.15-.835.025a1.044,1.044,0,0,1-.346-.909.84.84,0,0,1,1.426-.691c.481.455.286,1.292.018,1.8q-.185.355-.372.708l-.44.836.206-.092-.4-.009.091.116.957-1.788c.078-.146-.238-.133-.3-.024l-.957,1.788c-.035.065.03.115.091.116l.4.009a.225.225,0,0,0,.205-.092l.539-1.025a4.265,4.265,0,0,0,.539-1.3,1.439,1.439,0,0,0-.206-1.082,1.274,1.274,0,0,0-1.924.1,1.489,1.489,0,0,0-.161,1.107,1.011,1.011,0,0,0,.869.786c.3.039.89-.01.91-.41.008-.149-.309-.1-.316.03" transform="translate(-92.379 -75.48)" fill="#070203"/>
    <path id="路径_3744" data-name="路径 3744" d="M203.317,166.507a1.051,1.051,0,0,0,.166-.98.747.747,0,0,0-.817-.478.792.792,0,0,0-.739.637.924.924,0,0,0,.252.926.857.857,0,0,0,.578.144.83.83,0,0,0,.561-.249.078.078,0,0,0-.036-.135.235.235,0,0,0-.222.06.491.491,0,0,1-.62.023.744.744,0,0,1-.213-.692c.024-.223.126-.471.371-.5a.509.509,0,0,1,.565.332.9.9,0,0,1-.1.84.078.078,0,0,0,.036.135.233.233,0,0,0,.222-.059" transform="translate(-92.687 -75.769)" fill="#070203"/>
    <path id="路径_3745" data-name="路径 3745" d="M206.385,168.406a.843.843,0,0,1-.32-.4,1.362,1.362,0,0,1-.077-.6v0a2.076,2.076,0,0,1,.077-.42,2.541,2.541,0,0,1,.169-.429c.012-.024.024-.048.038-.071l.04-.069.9-1.509.4.029-1.056,1.746.009-.09a.481.481,0,0,1,.227-.167.767.767,0,0,1,.329-.042,1.029,1.029,0,0,1,.517.165.822.822,0,0,1,.306.394,1.389,1.389,0,0,1,.072.594v0a1.388,1.388,0,0,1-.161.591.844.844,0,0,1-.374.355,1.227,1.227,0,0,1-1.1-.076m1.06-.328a.78.78,0,0,0,.209-.525v0a.868.868,0,0,0-.136-.594.627.627,0,0,0-.487-.242.56.56,0,0,0-.479.173.924.924,0,0,0-.205.572v0a.773.773,0,0,0,.133.547.709.709,0,0,0,.965.068" transform="translate(-94.563 -75.704)" fill="#1a1311"/>
    <path id="路径_3746" data-name="路径 3746" d="M206.367,168.21c-.721-.511-.247-1.534.107-2.126l.753-1.261-.2.1.4.029-.1-.141-1.056,1.747.31.011c.027-.265.546-.168.729-.074a.917.917,0,0,1,.414.914,1.046,1.046,0,0,1-.351.816.96.96,0,0,1-1-.013c-.125-.077-.394.092-.24.188a1.367,1.367,0,0,0,1.378.031,1.316,1.316,0,0,0,.537-1.205,1.03,1.03,0,0,0-.776-1.03c-.331-.082-.962-.051-1.006.393-.017.178.255.1.31.011l1.056-1.747c.04-.066-.036-.137-.1-.141l-.4-.029a.205.205,0,0,0-.2.1l-.805,1.35c-.389.652-.753,1.729.008,2.269.121.085.39-.082.24-.188" transform="translate(-94.424 -75.601)" fill="#070203"/>
    <path id="路径_3747" data-name="路径 3747" d="M207.746,169.561a1.066,1.066,0,0,0,.2-.989.77.77,0,0,0-.789-.549.779.779,0,0,0-.759.6.97.97,0,0,0,.18.971.9.9,0,0,0,1.136-.008c.155-.144-.089-.268-.211-.155a.52.52,0,0,1-.639.014.722.722,0,0,1-.175-.718c.037-.212.149-.444.386-.461a.516.516,0,0,1,.548.356.868.868,0,0,1-.147.835.1.1,0,0,0,.043.162.21.21,0,0,0,.222-.059" transform="translate(-94.732 -77.136)" fill="#070203"/>
    <path id="路径_3748" data-name="路径 3748" d="M99.4,142.14c1.648.175,3.3-1.23,4.524-2.1,1.181-.838,2.405-1.625,3.632-2.4a25.1,25.1,0,0,1,4.752-2.6c.13-.043.267-.068.4-.111-.262.088-.006-.034,0,0,.015.052-.082-.057-.025,0a2.112,2.112,0,0,0-.261-.148c-.075-.043.015-.209-.011-.036-.01.066-.016.132-.027.2-.025.157.024-.052-.035.13a4.443,4.443,0,0,1-.184.464,12.35,12.35,0,0,1-1.935,2.778,23.263,23.263,0,0,0-1.676,1.873c-.431.633-.254,1.293.583,1.382a7.876,7.876,0,0,0,3.543-1.016,101.947,101.947,0,0,0,10.565-5.384,7.5,7.5,0,0,1,1.636-.779c.2-.051.11,0,.056-.027a2.066,2.066,0,0,1-.279-.2c-.089.012.144-.092,0,.02-.125.1-.233.533-.326.679-.064.1-.117.171-.187.262-1.063,1.39-2.213,2.72-3.316,4.077-.435.535-1.6,1.466-1.372,2.2.444,1.424,3.286-.634,4.026-1.109,2.711-1.743,5.375-3.609,8.152-5.243-.406.239.274-.113.387-.161.178-.075.112.009.261-.091.065-.044.061,0,.059-.014a.444.444,0,0,1-.486-.362c.023-.05.015-.029-.023.062-.2.124-.367.55-.52.769-.2.281-.389.569-.584.853-.828,1.21-1.586,2.539-2.521,3.667-.287.347-.7.7-.759,1.174-.12.97,1.189.8,1.751.621a21.344,21.344,0,0,0,3.6-1.766l9.813-5.418.75-.414c.788-.435.315-1.319-.512-1.079-2.688.781-5.419,3.795-4.351,6.739.631,1.741,2.518,2.08,4.166,1.838a5.4,5.4,0,0,0,2.488-1.242,15.887,15.887,0,0,0,2.159-2.139,23.467,23.467,0,0,0,2.813-3.9c.375-.692.468-1.826-.672-1.736-.86.067-1.578.895-2.135,1.46a12.33,12.33,0,0,0-1.147,1.254,5.48,5.48,0,0,0-.563,1.1c-.4.93-.741,1.888-1.072,2.845a26.016,26.016,0,0,1-1.329,3.49,44.51,44.51,0,0,1-2.919,4.79c-.865,1.261-1.773,2.493-2.712,3.7a14.808,14.808,0,0,1-2.252,2.693,5,5,0,0,1-2.079,1.107.961.961,0,0,1-.89-.235,1.493,1.493,0,0,1-.171-.217c-.046-.067-.219-.48-.09-.125a1.057,1.057,0,0,1-.05-.133c-.546-2.57,1.7-4.427,3.534-5.9,2.487-2,5.054-3.9,7.661-5.74A156.857,156.857,0,0,1,174.273,125.2q2.376-.968,4.794-1.822c.32-.114.737-.383.629-.788-.1-.369-.621-.48-.939-.368a148.067,148.067,0,0,0-32.54,16.76q-4.954,3.3-9.685,6.928a27.34,27.34,0,0,0-4.754,4.129c-.967,1.2-1.838,2.983-1.3,4.56.634,1.866,2.78,1.722,4.237,1.026,1.993-.952,3.157-2.671,4.476-4.386a67.283,67.283,0,0,0,4.37-6.355,25.836,25.836,0,0,0,1.628-3.038c.7-1.64,1.122-3.408,1.8-5.064.1-.247.206-.493.321-.735.043-.09.232-.464.193-.381-.08.167.053-.08.056-.071s-.123.123-.118.117c.241-.3.526-.573.786-.852a10.3,10.3,0,0,1,1.115-1.073c.119-.094.215-.192.254-.175.064.029-.207.056-.229.056a.559.559,0,0,1-.517-.2q-.065-.158-.043-.086c-.025,0,.042-.091,0,.051a1.53,1.53,0,0,0-.033.187c-.01.056.05-.115-.015.043-.017.041-.024.087-.044.127a19.3,19.3,0,0,1-2.443,3.432,14.934,14.934,0,0,1-2.094,2.15,5.5,5.5,0,0,1-1.26.808c-.234.114.129-.045-.054.023-.018.007-.137.054-.148.043a.676.676,0,0,0-.1.023c.279-.078.225-.034.144-.026a2.736,2.736,0,0,1-2.281-.4,2.337,2.337,0,0,1-.586-1.582,4.361,4.361,0,0,1,2.156-3.689,6.892,6.892,0,0,1,.865-.442c.219-.1,0,.061.129-.051a.386.386,0,0,1,.123-.039l-.512-1.079-8.231,4.544-3.879,2.142a18.132,18.132,0,0,1-1.869.825c-.059.025-.1.044-.11.024l.094.005a.444.444,0,0,1,.371.28c.1.112-.066.131,0,.138-.034,0,.114-.131.023-.056.041-.034.274-.346.388-.478a36.31,36.31,0,0,0,2.314-3.325c.332-.485.655-.978,1-1.456.273-.381.7-.838.7-1.343s-.485-.711-.931-.712a5.545,5.545,0,0,0-2.752,1.227l-4.757,3.059c-1.106.711-2.194,1.472-3.327,2.14-.289.17-.593.332-.9.479a4.058,4.058,0,0,0-.417.176c.127-.222.6.381.662.413.179.087-.171.03.024-.009-.058.012-.028.042.039-.054.052-.075.109-.147.167-.217.205-.255.438-.485.645-.737,1.119-1.359,2.221-2.731,3.332-4.1a3.8,3.8,0,0,0,1.009-1.85c.094-.963-.99-1.031-1.673-.85a12.293,12.293,0,0,0-2.686,1.292c-1.971,1.086-3.959,2.144-5.969,3.156-1.172.59-2.352,1.167-3.553,1.695-.461.2-.925.4-1.4.574a8.455,8.455,0,0,1-1.089.343,2.032,2.032,0,0,1-.252.049c-.107,0-.117.007-.03.01a.425.425,0,0,1,.247.16c.058.072.014.114.049.176.1.177-.118.016.009,0,.071-.011-.048.052.013-.024.033-.041.061-.086.1-.126.06-.069.121-.136.181-.2.162-.181-.307.331.083-.083a22.908,22.908,0,0,0,2.87-3.532c.365-.585,1.259-1.906.724-2.646-.788-1.089-3.055.281-3.85.7-1.79.946-3.5,2.046-5.193,3.158-1.211.8-2.4,1.779-3.665,2.471a5.555,5.555,0,0,1-1.127.479c-.249.072.063,0-.18.032-.166.019,0,0,.074.009a.981.981,0,0,0-1.017.494.535.535,0,0,0,.493.715" transform="translate(-45.389 -56.092)" fill="#1a1311"/>
    <path id="路径_3749" data-name="路径 3749" d="M131.088,132.349c-.334.507-.332,1.1.006,1.321s.882-.007,1.217-.514.332-1.1-.007-1.321-.883.007-1.217.514" transform="translate(-60.065 -60.483)" fill="#1a1311"/>
    <path id="路径_3750" data-name="路径 3750" d="M129.665,131.795a1.478,1.478,0,0,0-.1,1.615,1.137,1.137,0,0,0,.824.421,1.957,1.957,0,0,0,1.086-.229,2.263,2.263,0,0,0,1.184-1.567,1.249,1.249,0,0,0-.143-.825,1.09,1.09,0,0,0-.8-.476,1.742,1.742,0,0,0-.671.039,1.8,1.8,0,0,0-.484.181,2.728,2.728,0,0,0-.561.409,2.385,2.385,0,0,0-.343.431.4.4,0,0,0,.028.42.652.652,0,0,0,.443.213,1.164,1.164,0,0,0,.618-.11l.173-.1a.75.75,0,0,0,.232-.261l.016-.025-.094.137a1.716,1.716,0,0,1,.242-.278l-.137.123a1.46,1.46,0,0,1,.208-.156l-.173.1a1.179,1.179,0,0,1,.194-.092l-.2.074a1.087,1.087,0,0,1,.129-.035l-.214.037a.9.9,0,0,1,.126-.012l-.2,0a.687.687,0,0,1,.12.011l-.18-.038a.6.6,0,0,1,.129.044l-.15-.072a.584.584,0,0,1,.118.083l-.112-.1a.609.609,0,0,1,.114.156l-.065-.13a.815.815,0,0,1,.073.294c0-.048-.006-.1-.009-.145a1.267,1.267,0,0,1-.059.429l.045-.145a1.683,1.683,0,0,1-.2.414l.095-.137a1.716,1.716,0,0,1-.242.278l.137-.123a1.425,1.425,0,0,1-.209.156l.173-.1a1.185,1.185,0,0,1-.194.093l.2-.075a.966.966,0,0,1-.129.035l.213-.037a.89.89,0,0,1-.125.012l.2,0a.733.733,0,0,1-.12-.011l.18.038a.613.613,0,0,1-.13-.044l.151.072a.586.586,0,0,1-.119-.083l.113.1a.609.609,0,0,1-.114-.156l.065.13a.815.815,0,0,1-.072-.294c0,.048.006.1.009.145a1.268,1.268,0,0,1,.06-.429l-.046.145a1.676,1.676,0,0,1,.188-.389.4.4,0,0,0-.028-.42.647.647,0,0,0-.443-.213,1.163,1.163,0,0,0-.618.11,1,1,0,0,0-.4.363" transform="translate(-59.39 -60.009)" fill="#1a1311"/>
  </g>
</svg>
